<svg xmlns="http://www.w3.org/2000/svg" width="280" height="150" viewBox="0 0 280 150"><defs><style>.a,.b{fill:none;}.b,.e{stroke:#8f1028;stroke-miterlimit:10;}.b{stroke-linecap:round;stroke-width:0.9px;}.c,.d,.e{fill:#8f1028;}.c{fill-rule:evenodd;}.e{stroke-width:0.25px;}</style></defs><g transform="translate(-446 -297)"><rect class="a" width="280" height="150" transform="translate(446 297)"/><g transform="translate(256.358 83.951)"><path class="b" d="M583.968,305.96V294.051a7.749,7.749,0,0,1,7.75-7.75h0a7.749,7.749,0,0,1,7.75,7.75V305.96" transform="translate(-158.827 -5.063)"/><g transform="translate(199.642 274.049)"><path class="c" d="M213.088,274.049l-11,24.36a2.717,2.717,0,0,1-2.446,1.731v.454h5.488v-.454c-.953,0-2-.5-1.723-1.158.092-.221.15-.351.27-.67l8.429-19.126,9.389,19.223a2.449,2.449,0,0,1,.338.852c0,.685-.972.879-1.781.879v.454h8.312v-.454a2.558,2.558,0,0,1-2.443-1.731l-12.316-24.36Z" transform="translate(-199.642 -274.049)"/><path class="c" d="M284.824,306.664l8.3-18.975a2.062,2.062,0,0,1,2.092-1.26v-.448h-4.748v.448c.738,0,1.384.258,1.384.628a1.593,1.593,0,0,1-.224.633l-5.914,13.854-6.361-13.854a1.934,1.934,0,0,1-.259-.671c0-.4.756-.589,1.393-.589v-.448H274.6s.282.632.766,1.708l9.06,18.975Z" transform="translate(-230.618 -278.98)"/><path class="c" d="M315.653,305.461v-.448c-.705,0-1.315-.375-1.315-.9v-16.8c0-.522.576-.888,1.485-.888v-.448h-6.515v.448c.83,0,1.5.367,1.5.888v16.8c0,.522-.669.9-1.5.9v.448Z" transform="translate(-244.961 -278.98)"/><path class="c" d="M369.374,304.08c0,.522-.584.9-1.268.9v.443h11.771c5.792,0,9.314-4.082,9.314-9.76s-4.128-9.767-9.992-9.767H368.106v.449c.684,0,1.268.374,1.268.888Zm3.539-17.01h5.713c4.364,0,6.937,3.831,6.937,8.589s-2.144,8.587-6.3,8.587h-6.354Z" transform="translate(-269.262 -278.943)"/><path class="d" d="M336.508,286.04c-4.021.029-6.25,2.105-6.25,5.587v12.045c0,.524.611.894,1.318.894v.443h-6.164v-.443c.7,0,1.315-.37,1.315-.894V292.86c0-5.809,4.007-7.965,9.757-7.984,5.773.019,9.786,2.175,9.786,7.984v10.812c0,.524.611.894,1.308.894v.443h-6.157v-.443c.7,0,1.316-.37,1.316-.894V291.627c0-3.482-2.232-5.559-6.228-5.587" transform="translate(-251.618 -278.523)"/><path class="d" d="M249.756,293.685a10.972,10.972,0,0,1,.309-3.273,9.066,9.066,0,0,1,8.542-6.255c.33-.016.642-.023.991-.016a8.2,8.2,0,0,1,1.04.092l.64.067c.519.053.952-.519,1.024-1.216l.443,0,.016,5.922h-.444c0-.768-.229-3-1.784-3.453a5.507,5.507,0,0,0-.563-.152,4.515,4.515,0,0,0-.725-.092,7.9,7.9,0,0,0-1.352.1c-3.625.542-4.6,3.571-4.6,6.35v11.24c0,.518.651.886,1.518.886v.447h-6.368v-.449c.707,0,1.313-.366,1.313-.884Z" transform="translate(-219.81 -277.781)"/></g><g transform="translate(326.698 281.022)"><path class="e" d="M431.065,300.027l-3.05,5.983a.468.468,0,0,1-.08.08.137.137,0,0,1-.081.027.229.229,0,0,1-.15-.053.185.185,0,0,1-.065-.15.191.191,0,0,1,.006-.053.066.066,0,0,1,.016-.032l2.976-5.8H416.4a.2.2,0,0,1-.156-.065.24.24,0,0,1-.059-.168.185.185,0,0,1,.048-.145.259.259,0,0,1,.167-.041h14.427l6.777-13.265c.006-.015.013-.032.022-.053.049-.108.106-.165.172-.172a.313.313,0,0,1,.268.182c.007.015.014.029.022.043l9.828,19.486a.1.1,0,0,0,.01.032.066.066,0,0,1,.012.032.258.258,0,0,1-.064.171.2.2,0,0,1-.151.075.12.12,0,0,1-.08-.032.408.408,0,0,1-.08-.107l-3.05-5.972Zm.2-.419h13.04l-6.488-12.9Z" transform="translate(-416.188 -286.009)"/><path class="e" d="M487.523,289.3l.043.065.086.183a.214.214,0,0,1-.059.15.2.2,0,0,1-.156.064.139.139,0,0,1-.086-.032.378.378,0,0,1-.076-.075l-.064-.086a7.153,7.153,0,0,0-3.121-2.282,11.729,11.729,0,0,0-4.548-.865,8.688,8.688,0,0,0-5.175,1.419,4.315,4.315,0,0,0-1.979,3.647,3.653,3.653,0,0,0,1.4,2.992A8.708,8.708,0,0,0,478,296.031q.677.107,1.943.258a14.842,14.842,0,0,1,4.39,1,4.169,4.169,0,0,1,1.658,1.5,3.957,3.957,0,0,1,.585,2.134,4.491,4.491,0,0,1-1.866,3.7,7.583,7.583,0,0,1-4.794,1.452,10.885,10.885,0,0,1-2.4-.253,8.889,8.889,0,0,1-2.108-.759,9.323,9.323,0,0,1-1.265-.8,4.179,4.179,0,0,1-.686-.569l-.043-.075a.4.4,0,0,1-.032-.047.283.283,0,0,1-.053-.144.188.188,0,0,1,.053-.138.193.193,0,0,1,.139-.054.286.286,0,0,1,.123.028.275.275,0,0,1,.1.083l.064.084a7.354,7.354,0,0,0,2.661,1.633,9.781,9.781,0,0,0,3.409.59,7.237,7.237,0,0,0,4.513-1.343,4.1,4.1,0,0,0,1.761-3.389,3.6,3.6,0,0,0-.567-1.986,3.776,3.776,0,0,0-1.607-1.375,15.429,15.429,0,0,0-4.152-.9q-1.083-.128-1.673-.215a9.809,9.809,0,0,1-4.683-1.663,3.967,3.967,0,0,1-1.507-3.282,4.669,4.669,0,0,1,2.111-3.99,9.656,9.656,0,0,1,5.7-1.5,11.74,11.74,0,0,1,2.867.346,10.035,10.035,0,0,1,2.546,1.005,8.81,8.81,0,0,1,1.5,1.064A4.152,4.152,0,0,1,487.523,289.3Z" transform="translate(-439.24 -285.964)"/><path class="e" d="M631.073,289.3l.043.065.086.183a.212.212,0,0,1-.06.15.2.2,0,0,1-.155.064.141.141,0,0,1-.086-.032.382.382,0,0,1-.076-.075l-.064-.086a7.15,7.15,0,0,0-3.121-2.282,11.73,11.73,0,0,0-4.548-.865,8.689,8.689,0,0,0-5.175,1.419,4.315,4.315,0,0,0-1.979,3.647,3.653,3.653,0,0,0,1.4,2.992,8.708,8.708,0,0,0,4.215,1.548q.676.107,1.943.258a14.843,14.843,0,0,1,4.39,1,4.17,4.17,0,0,1,1.659,1.5,3.956,3.956,0,0,1,.585,2.134,4.491,4.491,0,0,1-1.866,3.7,7.583,7.583,0,0,1-4.794,1.452,10.889,10.889,0,0,1-2.4-.253,8.9,8.9,0,0,1-2.108-.759,9.328,9.328,0,0,1-1.265-.8,4.187,4.187,0,0,1-.686-.569l-.043-.075a.506.506,0,0,1-.032-.047.289.289,0,0,1-.053-.144.19.19,0,0,1,.053-.138.193.193,0,0,1,.14-.054.29.29,0,0,1,.123.028.274.274,0,0,1,.1.083l.065.084a7.352,7.352,0,0,0,2.66,1.633,9.78,9.78,0,0,0,3.409.59,7.237,7.237,0,0,0,4.513-1.343,4.1,4.1,0,0,0,1.761-3.389,3.6,3.6,0,0,0-.567-1.986,3.775,3.775,0,0,0-1.606-1.375,15.434,15.434,0,0,0-4.152-.9q-1.084-.128-1.674-.215a9.805,9.805,0,0,1-4.683-1.663,3.967,3.967,0,0,1-1.508-3.282,4.669,4.669,0,0,1,2.111-3.99,9.658,9.658,0,0,1,5.7-1.5,11.748,11.748,0,0,1,2.868.346,10.029,10.029,0,0,1,2.545,1.005,8.811,8.811,0,0,1,1.5,1.064A4.154,4.154,0,0,1,631.073,289.3Z" transform="translate(-498.564 -285.964)"/><path class="e" d="M503.211,286.342a.221.221,0,0,1,.064-.161.209.209,0,0,1,.151-.064.2.2,0,0,1,.15.058.242.242,0,0,1,.054.167v13.265h13.179V286.342a.22.22,0,0,1,.053-.161.255.255,0,0,1,.161-.064.2.2,0,0,1,.151.058.244.244,0,0,1,.053.167v19.506a.259.259,0,0,1-.065.162.255.255,0,0,1-.161.064.221.221,0,0,1-.151-.059.25.25,0,0,1-.043-.167v-5.821H503.63v5.821a.211.211,0,0,1-.059.156.264.264,0,0,1-.167.07.176.176,0,0,1-.145-.059.254.254,0,0,1-.048-.167v-5.821h-1.45a.222.222,0,0,1-.161-.065.226.226,0,0,1-.065-.168.174.174,0,0,1,.053-.145.285.285,0,0,1,.172-.041h1.45Z" transform="translate(-451.459 -286.009)"/><path class="e" d="M536.537,286.342a.22.22,0,0,1,.053-.161.253.253,0,0,1,.161-.064.161.161,0,0,1,.134.048.3.3,0,0,1,.038.177v19.506a.223.223,0,0,1-.053.162.259.259,0,0,1-.161.064.153.153,0,0,1-.134-.054.3.3,0,0,1-.038-.172Z" transform="translate(-465.924 -286.009)"/><path class="e" d="M543.384,295.966a10.164,10.164,0,0,1,2.954-7.133,9.747,9.747,0,0,1,3.233-2.153,10.341,10.341,0,0,1,7.717,0,9.73,9.73,0,0,1,3.239,2.153,9.968,9.968,0,0,1,2.164,3.261,10.241,10.241,0,0,1,.177,7.261,9.995,9.995,0,0,1-13.271,5.87,10.047,10.047,0,0,1-5.435-5.44A9.8,9.8,0,0,1,543.384,295.966Zm.419.01a9.356,9.356,0,0,0,.745,3.65,9.568,9.568,0,0,0,5.22,5.209,9.421,9.421,0,0,0,7.323.006,9.863,9.863,0,0,0,3.15-2.088,9.257,9.257,0,0,0,2.071-3.089,9.619,9.619,0,0,0,.718-3.688,9.8,9.8,0,0,0-.718-3.725,9.5,9.5,0,0,0-5.177-5.187,9.712,9.712,0,0,0-3.708-.712,9.518,9.518,0,0,0-6.083,2.162,9.734,9.734,0,0,0-2.6,3.361A9.472,9.472,0,0,0,543.8,295.976Z" transform="translate(-468.753 -285.933)"/></g><path class="b" d="M430.6,286.535h-1.422a7.534,7.534,0,0,0-7.534,7.534v12.242" transform="translate(-91.745 -5.16)"/></g></g></svg>