<svg xmlns="http://www.w3.org/2000/svg" width="200" height="150" viewBox="0 0 200 150"><defs><style>.a{fill:none;}.b{fill:#ee741d;}.c,.d{fill:#fefefe;}.c{fill-rule:evenodd;}</style></defs><g transform="translate(-1474 -297)"><rect class="a" width="200" height="150" transform="translate(1474 297)"/><g transform="translate(1411.649 190.635)"><rect class="b" width="174.363" height="92.788" transform="translate(75.351 135.365)"/><g transform="translate(113.281 148.445)"><g transform="translate(0 0)"><g transform="translate(0 2.381)"><path class="c" d="M233.249,192.239c-.17-.008-.35-.013-.531-.013a14.42,14.42,0,0,0-10.032,4.16c-3.012,3.08-4.355,6.786-4.355,12.013v1.033h-2.776a.7.7,0,0,0-.7.7v3.025a.7.7,0,0,0,.7.7h2.776v21.9c0,.066,0,.133,0,.2a1.9,1.9,0,0,1-.287,1.331,1.147,1.147,0,0,1-.853.271h-.781a.7.7,0,0,0-.7.7v2.516a.7.7,0,0,0,.7.7h11.924a.7.7,0,0,0,.7-.7v-2.516a.7.7,0,0,0-.7-.7h-.964a1.045,1.045,0,0,1-.786-.244,1.638,1.638,0,0,1-.2-1.177c.006-.128.013-.26.013-.383v-21.9h8a.7.7,0,0,0,.7-.7v-3.025a.7.7,0,0,0-.7-.7h-8v-5.91c0-3.338.783-5.684,2.2-6.605a3.191,3.191,0,0,1,1.745-.589,4.458,4.458,0,0,1,2.086.7,4.782,4.782,0,0,0,2.242.744h0c.062,0,.125,0,.188-.008a2.947,2.947,0,0,0,2.584-2.608,2.189,2.189,0,0,0-.49-1.712C236.326,192.728,235.113,192.331,233.249,192.239Z" transform="translate(-214.854 -192.226)"/><path class="c" d="M326.806,209.982c-.163,0-.327,0-.489.011a11.4,11.4,0,0,0-8.641,4.359V198.03c0-1.517-.637-2.286-1.895-2.286a3.862,3.862,0,0,0-.7.071c-.059.008-5.852.837-6.928,1.146-.887.188-1.3.638-1.3,1.417v.57a.952.952,0,0,0,1,1.007h0l.865.1c.891.148.891.148.882,1.252,0,.118,0,.249,0,.393v40.354a1.85,1.85,0,0,0,1.922,1.939,2.816,2.816,0,0,0,1.016-.285,6.272,6.272,0,0,1,2.811-.559,13.764,13.764,0,0,1,2.6.528,24.849,24.849,0,0,0,6.364,1.029c5.54,0,9.427-1.526,11.885-4.663,2.307-2.946,3.428-7.45,3.428-13.765,0-5.28-1.442-9.607-4.169-12.514a11.92,11.92,0,0,0-8.644-3.783Zm4.78,17.206h0c-.069,4.414-.7,7.667-1.923,9.94a6.805,6.805,0,0,1-6.468,3.838c-.1,0-.208,0-.315,0-4.3-.13-5.2-3.219-5.2-5.788l-.017-13.4c0-2.113,1.943-6.2,5.813-6.8a6.4,6.4,0,0,1,.983-.079,5.622,5.622,0,0,1,4.068,1.754C330.573,218.731,331.66,222.474,331.586,227.188Z" transform="translate(-281.838 -194.787)"/><path class="c" d="M464.308,213.766a11.921,11.921,0,0,0-8.644-3.783c-.162,0-.327,0-.489.011a11.4,11.4,0,0,0-8.641,4.359V198.03c0-1.517-.638-2.286-1.894-2.286a3.859,3.859,0,0,0-.7.071c-.058.008-5.852.837-6.927,1.146-.887.188-1.3.638-1.3,1.417v.57a.952.952,0,0,0,1,1.007h0l.865.1c.89.148.89.148.882,1.251,0,.119,0,.249,0,.394v40.354a1.849,1.849,0,0,0,1.922,1.939,2.814,2.814,0,0,0,1.016-.285,6.274,6.274,0,0,1,2.812-.559,13.759,13.759,0,0,1,2.6.528,24.849,24.849,0,0,0,6.364,1.029c5.54,0,9.427-1.526,11.885-4.663,2.306-2.946,3.428-7.45,3.428-13.765,0-5.28-1.442-9.607-4.169-12.514Zm-3.863,13.422h0c-.07,4.414-.7,7.666-1.924,9.94a6.805,6.805,0,0,1-6.469,3.838c-.1,0-.208,0-.314,0-4.3-.13-5.205-3.219-5.205-5.788l-.017-13.4c0-2.113,1.942-6.2,5.812-6.8a6.4,6.4,0,0,1,.983-.079,5.623,5.623,0,0,1,4.069,1.754C459.432,218.731,460.519,222.474,460.445,227.188Z" transform="translate(-375.661 -194.787)"/></g><path class="c" d="M549.9,185.394c-1.041,0-1.766,1.144-2.87,1.144-1.087,0-1.4-.791-2.973-2.1a3.057,3.057,0,0,0-2.753-.909,1.241,1.241,0,0,0,.645.709.84.84,0,0,0,.4,1.076,1.1,1.1,0,0,0,.478,1.368c-.073.224-.1.551.583,1.53,1.754,2.53-1.337,3.1-1.767,3.785,5.352-.464,6.985-3.537,7.531-4.415a2.45,2.45,0,0,1,1.878-1.382A1.321,1.321,0,0,0,549.9,185.394Z" transform="translate(-452.548 -183.471)"/><g transform="translate(1.958 60.944)"><rect class="d" width="1.421" height="5.456" transform="translate(0 0.115)"/><path class="c" d="M231.693,408.041h1.459l1.9,3.362h.015v-3.362H236.4V413.5h-1.459l-1.9-3.4h-.015v3.4h-1.337Z" transform="translate(-229.072 -407.927)"/><path class="c" d="M253.417,408.041h2.346a2.729,2.729,0,0,1,0,5.456h-2.346v-5.456Zm1.421,4.233h.672c1.077-.023,1.505-.443,1.505-1.536a1.326,1.326,0,0,0-1.505-1.474h-.672Z" transform="translate(-244.89 -407.927)"/><rect class="d" width="1.421" height="5.456" transform="translate(14.388 0.115)"/><path class="c" d="M285.329,408.041h1.444l2.041,5.456h-1.483l-.336-.978h-1.9l-.344.978h-1.46l2.04-5.456Zm.092,3.423h1.238l-.6-1.91h-.015Z" transform="translate(-266.64 -407.927)"/><path class="c" d="M303.158,408.041h1.215v1.269a1.376,1.376,0,0,1-1.215,1.482v-.611a.678.678,0,0,0,.55-.719h-.55Z" transform="translate(-281.107 -407.927)"/><path class="c" d="M311.183,411.357c.03.642.428.848,1.032.848.428,0,.871-.153.871-.558,0-.482-.78-.573-1.567-.795s-1.6-.573-1.6-1.574c0-1.192,1.2-1.658,2.224-1.658,1.085,0,2.178.527,2.185,1.758H312.91c.023-.5-.443-.657-.879-.657-.306,0-.688.107-.688.466,0,.42.787.5,1.582.718s1.582.588,1.582,1.574c0,1.383-1.177,1.827-2.377,1.827-1.253,0-2.361-.55-2.369-1.949Z" transform="translate(-285.915 -407.62)"/><path class="c" d="M342.727,408.041h4.019v1.139h-2.6V410.3h2.247v1.1h-2.247v2.1h-1.421Z" transform="translate(-309.917 -407.927)"/><path class="c" d="M359.324,408.041h1.444l2.04,5.456h-1.483l-.336-.978h-1.9l-.344.978h-1.459l2.04-5.456Zm.092,3.423h1.238l-.6-1.91h-.016Z" transform="translate(-320.516 -407.927)"/><path class="c" d="M380.682,411.357c.03.642.428.848,1.032.848.428,0,.871-.153.871-.558,0-.482-.779-.573-1.567-.795s-1.6-.573-1.6-1.574c0-1.192,1.2-1.658,2.224-1.658,1.085,0,2.178.527,2.185,1.758h-1.421c.023-.5-.443-.657-.879-.657-.306,0-.688.107-.688.466,0,.42.787.5,1.582.718s1.582.588,1.582,1.574c0,1.383-1.177,1.827-2.376,1.827-1.253,0-2.361-.55-2.368-1.949Z" transform="translate(-336.518 -407.62)"/><path class="c" d="M400.759,408.041h1.421v1.987h1.872v-1.987h1.421V413.5h-1.421v-2.247H402.18V413.5h-1.421Z" transform="translate(-352.171 -407.927)"/><rect class="d" width="1.421" height="5.456" transform="translate(54.51 0.115)"/><path class="c" d="M434.137,407.62a2.847,2.847,0,1,1-2.69,2.843,2.623,2.623,0,0,1,2.69-2.843Zm0,4.462h0c.917,0,1.269-.81,1.269-1.62s-.352-1.62-1.269-1.62-1.268.81-1.268,1.62S433.22,412.082,434.137,412.082Z" transform="translate(-374.515 -407.62)"/><path class="c" d="M454.211,408.041h1.459l1.9,3.362h.015v-3.362h1.337V413.5h-1.459l-1.9-3.4h-.015v3.4h-1.337Z" transform="translate(-391.09 -407.927)"/><path class="c" d="M487.539,408.041h1.421v1.987h1.872v-1.987h1.421V413.5h-1.421v-2.247h-1.872V413.5h-1.421Z" transform="translate(-415.357 -407.927)"/><path class="c" d="M513.876,411.243a2.376,2.376,0,0,1-4.753,0v-3.2h1.421v3.286c0,.7.26,1.062.955,1.062s.955-.359.955-1.062v-3.286h1.421Z" transform="translate(-431.072 -407.927)"/><path class="c" d="M530.9,408.039h2.552c.94-.015,1.971.229,1.971,1.368a1.227,1.227,0,0,1-.718,1.1,1.3,1.3,0,0,1,.94,1.292c0,1.3-.955,1.7-2.124,1.7H530.9v-5.456Zm1.422,2.147h1.1a.53.53,0,0,0,.581-.52c0-.4-.283-.527-.581-.527h-1.1v1.047Zm0,2.17h1.138c.451,0,.764-.16.764-.611,0-.482-.336-.642-.764-.642h-1.138Z" transform="translate(-446.929 -407.925)"/></g></g></g></g></g></svg>