<svg xmlns="http://www.w3.org/2000/svg" width="380" height="150" viewBox="0 0 380 150"><defs><style>.a{fill:none;}.b{fill:#5b6267;fill-rule:evenodd;}</style></defs><g transform="translate(-857 -711)"><rect class="a" width="380" height="150" transform="translate(857 711)"/><g transform="translate(720.693 501.796)"><path class="b" d="M431.09,264.518a2.6,2.6,0,0,0,2.677-2.642,2.537,2.537,0,0,0-2.6-2.593H398.451a3.418,3.418,0,0,0-3.494,3.421V305.18a3.408,3.408,0,0,0,3.494,3.481H431.09a2.684,2.684,0,0,0,0-5.369H400.411V286.809h28.353a2.618,2.618,0,1,0,0-5.235H400.411V264.518Z" transform="translate(-85.185 -0.373)"/><path class="b" d="M509.552,258.781a2.775,2.775,0,0,0-2.764,2.9v36.608L474.4,260.376a3.387,3.387,0,0,0-2.617-1.424,2.8,2.8,0,0,0-2.666,3.092v43.875a2.729,2.729,0,1,0,5.454,0V269.287l32.481,37.935a3.509,3.509,0,0,0,2.655,1.376,2.645,2.645,0,0,0,2.6-2.91v-44.01a2.775,2.775,0,0,0-2.763-2.9" transform="translate(-110.799 -0.199)"/><path class="b" d="M648.989,280.853c-8.558-.731-16.642-1.412-16.642-7.987a4.34,4.34,0,0,1,.365-1.813l.049-.146c1.546-4.492,8.059-6.513,13.123-6.878.317,0,.621-.024.949-.037.244-.025.5-.037.743-.037,7.974,0,13.124,1.753,15.328,5.21h.012a2.548,2.548,0,0,0,2.167,1.193,2.593,2.593,0,0,0,2.581-2.593,2.524,2.524,0,0,0-.45-1.461h0c-4.309-6.55-14.2-7.524-19.7-7.524a35.079,35.079,0,0,0-6.354.609c-8.9,1.9-14.207,6.915-14.207,13.416,0,11.48,11.919,12.429,21.5,13.2,9.18.742,16.448,1.315,16.448,7.852,0,9.581-14.9,9.85-16.606,9.85a25.928,25.928,0,0,1-3.238-.208c-4.955-.462-11.055-2.313-13.307-6.16a2.884,2.884,0,0,0-2.386-1.546,2.652,2.652,0,0,0-2.654,2.654,2.711,2.711,0,0,0,.305,1.242v.024c4.382,8.375,17.4,9.033,21.279,9.033,10.64,0,22.011-3.932,22.011-14.95,0-11.127-11.334-12.089-21.317-12.941" transform="translate(-165.226 -0.199)"/><path class="b" d="M570.288,259.228H554.169a3.384,3.384,0,0,0-3.481,3.348V305.2a3.452,3.452,0,0,0,3.481,3.42h16.118c13.306,0,23.727-10.822,23.727-24.64,0-14.341-9.97-24.75-23.727-24.75m18.262,24.75c0,10.75-8.022,19.174-18.262,19.174H556.166V264.706h14.122C581.037,264.706,588.549,272.631,588.549,283.978Z" transform="translate(-138.97 -0.354)"/><path class="b" d="M279.877,259.283H239.74a2.62,2.62,0,1,0,0,5.223h17.274V306.02a2.779,2.779,0,0,0,2.764,2.91,2.843,2.843,0,0,0,2.824-2.91V264.506h17.275a2.62,2.62,0,1,0,0-5.223" transform="translate(-30.598 -0.373)"/><path class="b" d="M344.268,288.367c8.011-1.546,13.927-7.548,13.927-14.3,0-8.315-7.633-14.658-17.749-14.767l-20.721-.012a2.7,2.7,0,0,0-2.763,2.764v44.216a2.662,2.662,0,0,0,.9,2.021,2.821,2.821,0,0,0,1.814.646,2.676,2.676,0,0,0,2.739-2.74v-17.4H337.3l15.961,18.687a2.891,2.891,0,0,0,2.2,1.072,2.749,2.749,0,0,0,1.789-.658,2.837,2.837,0,0,0,.962-1.85,2.875,2.875,0,0,0-.706-2.2Zm8.7-14.232c0,5.126-5.831,9.472-12.734,9.5H322.416v-19.04h17.75l.012.012C346.375,264.6,352.973,267.939,352.973,274.135Z" transform="translate(-58.248 -0.373)"/><path class="b" d="M198.915,283.843a.6.6,0,0,1-.036.061,25.484,25.484,0,0,1-11.663,21.2,4.327,4.327,0,0,1-1.912.524,3.731,3.731,0,0,1-3.128-1.7l-8.559-11.346a7.95,7.95,0,0,0,0-15.9h-.208c-7.864,0-14.231,8.205-14.231,18.322a20.691,20.691,0,0,0,5.259,14.231,26.41,26.41,0,0,1-16.131-24.6c0-14.585,11.334-26.418,25.31-26.418,13.368,0,24.311,10.824,25.237,24.519a6.768,6.768,0,0,1,.049.743v.024c0,.109,0,.231.012.353m-27.684,11.808a39.175,39.175,0,0,1-2.386-7.279.146.146,0,0,0-.146-.11.131.131,0,0,0-.122.11,38.265,38.265,0,0,1-2.4,7.279,15.858,15.858,0,0,0-1.448,4.152,10.684,10.684,0,0,0-.086,3.238,10.209,10.209,0,0,0,4.017,6.184l.037.025.048-.025a10.164,10.164,0,0,0,4.006-6.184,9.974,9.974,0,0,0-.062-3.238A16.353,16.353,0,0,0,171.231,295.652Z"/><path class="b" d="M178.173,288.611Z" transform="translate(-10.315 -10.502)"/><path class="b" d="M179.8,311.522a39.6,39.6,0,0,1-2.386-7.292.146.146,0,0,0-.146-.11.131.131,0,0,0-.122.11,38.675,38.675,0,0,1-2.4,7.292,15.618,15.618,0,0,0-1.448,4.14,10.684,10.684,0,0,0-.086,3.238,10.209,10.209,0,0,0,4.017,6.184l.037.025.048-.025a10.164,10.164,0,0,0,4.006-6.184,9.974,9.974,0,0,0-.062-3.238,16.1,16.1,0,0,0-1.46-4.14" transform="translate(-8.571 -15.858)"/></g></g></svg>