<svg xmlns="http://www.w3.org/2000/svg" width="280" height="150" viewBox="0 0 280 150"><defs><style>.a,.f{fill:none;}.a{stroke:#5b5d60;stroke-miterlimit:10;stroke-width:1.067px;}.b{fill:#80b341;}.c{fill:#075387;}.d{fill:#b8975c;fill-rule:evenodd;}.e{fill:#5b5d60;}</style></defs><g transform="translate(-484 -522)"><g transform="translate(459.725 502.34)"><path class="a" d="M276.727,131.65c-2.443,11.223-13.841,20.41-25.332,20.41H76.251c-11.487,0-22.886-9.187-25.33-20.41L34.742,57.322C32.3,46.1,39.7,36.912,51.186,36.912H276.461c11.487,0,18.889,9.184,16.445,20.41Z"/><path class="b" d="M135.651,104.792h-8.911L115.161,91.5h-7.212v13.291h-7.5v-39.8c6.3,0,12.608.057,18.913.057,9.367.057,14.3,6.3,14.3,13.171,0,5.447-2.5,10.96-10.05,12.489L136.1,104.792Zm-27.7-32.756V84.746h11.414c4.762,0,6.807-3.18,6.807-6.354s-2.1-6.357-6.807-6.357Z" transform="translate(8.786 3.728)"/><rect class="c" width="18.753" height="6.981" transform="translate(175.38 85.183)"/><path class="c" d="M179.584,65.04H149.837v39.743h29.748V97.4h-22.31v-.015h-.022V72.331h.022v-.019h22.31Z" transform="translate(15.343 3.734)"/><rect class="c" width="6.875" height="39.687" transform="translate(198.056 68.831)"/><path class="c" d="M238.1,103.459V88.808c0-4.259-2.332-7.5-6.764-7.5-4.257,0-7.15,3.582-7.15,7.836v14.311h-6.869V75.407h6.186l.459,3.806c2.836-2.779,5.677-4.2,9.2-4.2,6.581,0,11.858,4.939,11.858,13.743v14.706Z" transform="translate(24.303 5.058)"/><path class="c" d="M211.261,75.506l-.167,2.9a14.8,14.8,0,1,0,.044,22.183l.231,2.912h6.755V75.506Zm-9.941,24.873A10.874,10.874,0,1,1,212.187,89.51a10.874,10.874,0,0,1-10.868,10.869" transform="translate(20.212 5.018)"/><path class="b" d="M200.712,79.281a9.619,9.619,0,1,0,9.615,9.624,9.627,9.627,0,0,0-9.615-9.624M198.04,93.518a1.924,1.924,0,1,1,1.921-1.923,1.919,1.919,0,0,1-1.921,1.923m0-5.39a1.922,1.922,0,1,1,1.921-1.919,1.917,1.917,0,0,1-1.921,1.919m5.333,5.39a1.924,1.924,0,1,1,1.922-1.923,1.919,1.919,0,0,1-1.922,1.923m0-5.39a1.922,1.922,0,1,1,1.922-1.919,1.917,1.917,0,0,1-1.922,1.919" transform="translate(20.82 5.625)"/><rect class="c" width="1.552" height="39.748" transform="translate(151.602 68.772)"/><path class="c" d="M244.942,76.025h-1.3v3.3h-.668v-3.3h-1.3v-.664h3.277Zm3.891-.635h.924v3.939h-.663V76.336l-1.159,2.415h-.545l-1.158-2.415v2.992h-.666V75.389h.92l1.163,2.578Z" transform="translate(27.535 5.105)"/><path class="d" d="M86.917,101.868a4.622,4.622,0,0,1-4.6.51,2,2,0,0,1-.725-.579c-.357-.436-8.216-9.229-8.216-9.229V92.5a6.41,6.41,0,0,0,6.415-2.807,6.491,6.491,0,0,0,.077-6.922c-1.584-2.162-4.615-2.887-7.141-2.6-4.4.649-7.492,4.547-8.506,8.658a22.6,22.6,0,0,0,1.3,13.116,11.289,11.289,0,0,0,1.447,2.593A20.638,20.638,0,0,1,56.152,93.794a20.88,20.88,0,0,1,.43-17.588,20.386,20.386,0,1,1,30.334,25.663" transform="translate(2.674 3.751)"/><path class="d" d="M68.589,101.831c-2.234-2.455-4.028-5.621-2.663-8.867a29.509,29.509,0,0,0,2.81-7.928c.219,2.952,2.03,5.694,2.885,8.575a7.3,7.3,0,0,1-.142,4.255,13.391,13.391,0,0,1-2.667,4.181Z" transform="translate(4.139 6.389)"/><path class="e" d="M186.577,113.885V105.6h5.069a.567.567,0,0,1,.4.165.526.526,0,0,1,.169.391.544.544,0,0,1-.169.4.51.51,0,0,1-.4.17h-3.953v1.759h2.835a.533.533,0,0,1,.4.164.52.52,0,0,1,.164.4.526.526,0,0,1-.164.4.55.55,0,0,1-.4.164h-2.835v4.278a.558.558,0,0,1-.955.4.544.544,0,0,1-.161-.4" transform="translate(20.221 9.119)"/><path class="e" d="M193.83,110.121h2.2a2.743,2.743,0,0,1,.521.083l-.014-.791a.533.533,0,0,0-.164-.4.542.542,0,0,0-.4-.164h-2.127a.563.563,0,0,1-.562-.556.534.534,0,0,1,.164-.4.543.543,0,0,1,.4-.165h2.127a1.626,1.626,0,0,1,1.183.483,1.709,1.709,0,0,1,.512,1.194l.139,4.188a.533.533,0,0,1-.17.4.527.527,0,0,1-.392.165.558.558,0,0,1-.4-.165.532.532,0,0,1-.164-.4l-.952.564H193.83a1.688,1.688,0,0,1-1.688-1.7v-.648a1.7,1.7,0,0,1,1.688-1.7m2.8,2.185-.031-.474a.544.544,0,0,0-.171-.4.519.519,0,0,0-.389-.161H193.83a.549.549,0,0,0-.555.561v.625a.531.531,0,0,0,.161.391.55.55,0,0,0,.394.165h1.582Z" transform="translate(20.96 9.403)"/><path class="e" d="M199.858,106.154v2.631l.49-.391a1.479,1.479,0,0,1,.964-.386h1.029a1.462,1.462,0,0,1,1,.386l.534.457a1.539,1.539,0,0,1,.367.556,2.005,2.005,0,0,1,.138.7v2.267a1.865,1.865,0,0,1-.129.648,1.46,1.46,0,0,1-.31.5l-.486.46a1.794,1.794,0,0,1-.532.326,1.712,1.712,0,0,1-.585.143h-.963a2.337,2.337,0,0,1-1.52-.782v.217a.565.565,0,0,1-.562.564.573.573,0,0,1-.564-.564v-7.731a.515.515,0,0,1,.17-.4.566.566,0,0,1,.791,0,.531.531,0,0,1,.165.4m2.391,2.984h-.767a.65.65,0,0,0-.43.126l-1,.864a.66.66,0,0,0-.191.521v1.26a.582.582,0,0,0,.217.469l.9.756a.59.59,0,0,0,.4.179h.911a.473.473,0,0,0,.336-.121l.446-.4a.451.451,0,0,0,.181-.378v-2.358a.526.526,0,0,0-.181-.426l-.409-.339a.615.615,0,0,0-.413-.156" transform="translate(21.835 9.119)"/><path class="e" d="M205.262,113.6v-5.3a.55.55,0,0,1,.165-.4.522.522,0,0,1,.391-.169.556.556,0,0,1,.4.165.548.548,0,0,1,.164.408v.7l.912-.78a1.723,1.723,0,0,1,1.106-.479h.819a1.679,1.679,0,0,1,1.674,1.678v.3a.547.547,0,0,1-.161.4.534.534,0,0,1-.4.169.519.519,0,0,1-.394-.165.53.53,0,0,1-.167-.394v-.313a.55.55,0,0,0-.155-.4.564.564,0,0,0-.4-.165h-.725a.83.83,0,0,0-.521.251l-1.59,1.377V113.6a.571.571,0,0,1-.564.565.565.565,0,0,1-.556-.565" transform="translate(22.701 9.402)"/><path class="e" d="M215.543,114.49h-3.41a.56.56,0,0,1-.4-.952.556.556,0,0,1,.4-.169h1.138V109.2h-1.126a.539.539,0,0,1-.4-.165.545.545,0,0,1-.164-.391.565.565,0,0,1,.164-.4.53.53,0,0,1,.4-.169h1.7a.525.525,0,0,1,.39.169.548.548,0,0,1,.165.4v4.73h1.126a.577.577,0,0,1,.4.164.55.55,0,0,1,0,.8.526.526,0,0,1-.386.161m-2.281-9.329h.588a.535.535,0,0,1,.39.165.517.517,0,0,1,.165.394v.483a.555.555,0,0,1-.165.4.538.538,0,0,1-.39.169h-.6a.53.53,0,0,1-.4-.174.537.537,0,0,1-.159-.39l.015-.492a.517.517,0,0,1,.165-.394.528.528,0,0,1,.394-.165" transform="translate(23.54 9.061)"/><path class="e" d="M222.5,114.165h-2.389a1.629,1.629,0,0,1-1.081-.382l-1.086-.947a1.432,1.432,0,0,1-.521-1.172V110.2a1.5,1.5,0,0,1,.587-1.234l.976-.851a1.608,1.608,0,0,1,1.016-.383h2.51a.564.564,0,0,1,.4.165.54.54,0,0,1,.155.4.553.553,0,0,1-.155.4.576.576,0,0,1-.4.157h-2.4a.673.673,0,0,0-.44.177l-.894.769a.627.627,0,0,0-.222.5v1.36a.482.482,0,0,0,.174.377l.987.838a.714.714,0,0,0,.492.165H222.5a.563.563,0,0,1,.392.16.561.561,0,0,1-.392.961" transform="translate(24.316 9.403)"/><path class="e" d="M233.65,114.432h-5.085v-3.862a1.068,1.068,0,0,1,.331-.794,1.051,1.051,0,0,1,.785-.34h3.395v-2.719h-3.99a.515.515,0,0,1-.4-.169.556.556,0,0,1,.4-.952h3.99a1.1,1.1,0,0,1,.805.33,1.06,1.06,0,0,1,.333.791v2.719a1.081,1.081,0,0,1-.333.8,1.094,1.094,0,0,1-.805.33h-3.395v2.741h3.969a.567.567,0,0,1,.564.56.561.561,0,0,1-.564.561" transform="translate(25.791 9.119)"/><path class="e" d="M234.753,112.055h.715a.362.362,0,0,1,.248.1.328.328,0,0,1,.1.253v.6a.339.339,0,0,1-.1.253.319.319,0,0,1-.248.1h-.72a.345.345,0,0,1-.253-.1.357.357,0,0,1-.1-.248v-.607a.34.34,0,0,1,.1-.253.356.356,0,0,1,.254-.1" transform="translate(26.57 9.977)"/><path class="e" d="M236.808,113.357v-6.694a1.043,1.043,0,0,1,.321-.76,1.025,1.025,0,0,1,.756-.317h3.489a1.013,1.013,0,0,1,.751.317,1.048,1.048,0,0,1,.321.76v6.694a1.033,1.033,0,0,1-.321.76,1.019,1.019,0,0,1-.76.317h-3.48a1.077,1.077,0,0,1-1.076-1.077m4.53-6.637h-3.41v6.594h3.41Z" transform="translate(26.89 9.118)"/></g><rect class="f" width="280" height="150" transform="translate(484 522)"/></g></svg>