<svg xmlns="http://www.w3.org/2000/svg" width="240" height="150" viewBox="0 0 240 150"><defs><style>.a{fill:none;}.b{fill:#0063b0;}.c{fill:#267631;}.d,.e{fill:#1a1818;}.e{fill-rule:evenodd;}</style></defs><g transform="translate(-874 -522)"><rect class="a" width="240" height="150" transform="translate(874 522)"/><g transform="translate(830 457.857)"><path class="b" d="M105.859,143.511c0-5.874-1.585-10.723-5.128-14.08-2.8-2.611-6.62-4.289-12.681-5.128l-7.832-1.119a11.418,11.418,0,0,1-6.154-2.611,6.408,6.408,0,0,1-1.958-4.756c0-4.569,3.357-8.392,10.257-8.392,4.383,0,9.418.559,13.614,4.569l8.205-8.112c-5.688-5.5-12.308-7.739-21.446-7.739-14.359,0-23.124,8.3-23.124,20.141,0,5.595,1.585,9.884,4.756,13.054,2.984,2.891,7.18,4.662,12.867,5.5l8.019,1.119c3.077.466,4.569,1.119,5.874,2.331a7.392,7.392,0,0,1,2.051,5.594c0,5.315-4.1,8.206-11.749,8.206-6.154,0-11.842-1.4-16.038-5.595L57,154.886c6.527,6.621,14.173,8.765,24.243,8.765,13.893,0,24.616-7.273,24.616-20.14Zm52.477-3.17V96.7H145.469v43.172c0,7.646-4.569,12.215-11.562,12.215s-11.469-4.569-11.469-12.215V96.7H109.477V140.34c0,14.08,10.816,23.311,24.43,23.311s24.43-9.231,24.43-23.311Z" transform="translate(0 0)"/><path class="c" d="M521.116,166.472,506.29,137.846a17.877,17.877,0,0,0,12.122-17.436c0-11.1-8.019-20.327-21.539-20.327H470.858v66.389h12.961V139.991h9.324L506.1,166.472ZM505.451,120.41c0,5.128-3.73,8.765-9.417,8.765H483.819v-17.53h12.215c5.688,0,9.417,3.637,9.417,8.765ZM568,166.472V154.91h-30.77V138.779h26.2V127.217h-26.2V111.645H568V100.083H524.268v66.389Z" transform="translate(-296.323 -2.821)"/><path class="d" d="M71.648,375.449a2.372,2.372,0,0,0-.8-1.876,3.052,3.052,0,0,0-1.73-.665l-1.038-.16a2.726,2.726,0,0,1-1.277-.519,1.367,1.367,0,0,1-.426-1.091,1.75,1.75,0,0,1,2-1.756,2.986,2.986,0,0,1,2.209.812l.652-.652a3.8,3.8,0,0,0-2.821-1.038c-1.876,0-3.034,1.064-3.034,2.674a2.239,2.239,0,0,0,.719,1.77,3.445,3.445,0,0,0,1.743.719l1.1.173a2.042,2.042,0,0,1,1.237.452,1.525,1.525,0,0,1,.452,1.184c0,1.1-.851,1.756-2.235,1.756a3.255,3.255,0,0,1-2.581-1.038l-.692.692a4.13,4.13,0,0,0,3.246,1.251c1.969,0,3.273-1.025,3.273-2.688Zm10.937-.519v-6.347H81.573v6.267a2.3,2.3,0,1,1-4.591,0v-6.267H75.972v6.347a3.308,3.308,0,0,0,6.613,0Zm10.657.519a2.372,2.372,0,0,0-.8-1.876,3.052,3.052,0,0,0-1.73-.665l-1.038-.16a2.725,2.725,0,0,1-1.277-.519,1.367,1.367,0,0,1-.426-1.091,1.75,1.75,0,0,1,2-1.756,2.985,2.985,0,0,1,2.209.812l.652-.652a3.8,3.8,0,0,0-2.821-1.038c-1.876,0-3.034,1.064-3.034,2.674a2.239,2.239,0,0,0,.718,1.77,3.446,3.446,0,0,0,1.743.719l1.1.173a2.043,2.043,0,0,1,1.237.452,1.525,1.525,0,0,1,.452,1.184c0,1.1-.852,1.756-2.235,1.756a3.255,3.255,0,0,1-2.581-1.038l-.692.692a4.131,4.131,0,0,0,3.247,1.251c1.969,0,3.273-1.025,3.273-2.688Zm9.979-5.961v-.9H96.728v.9h2.741v8.569h1.011v-8.569Zm9.912,8.569-3.473-9.474h-.852l-3.486,9.474H106.4l.759-2.142H111.3l.758,2.142ZM111,375.037h-3.539l1.783-5,1.756,5Zm7.012,3.02v-9.474h-1.011v9.474Zm12.081,0v-9.474h-1.011v7.571l-5.03-7.571H123.1v9.474h1.011v-7.6l5.03,7.6Zm11.682,0-3.473-9.474h-.851l-3.486,9.474h1.078l.759-2.142h4.138l.758,2.142Zm-2.129-3.02h-3.539l1.783-5,1.756,5Zm12.507.4a2.292,2.292,0,0,0-1.543-2.249,2.171,2.171,0,0,0,1.4-2.076,2.5,2.5,0,0,0-2.794-2.528h-3.566v9.474h3.686a2.51,2.51,0,0,0,2.821-2.621Zm-1.011-.027a1.7,1.7,0,0,1-1.9,1.743h-2.581V373.68h2.581a1.693,1.693,0,0,1,1.9,1.73ZM151,371.125c0,1.131-.812,1.65-1.863,1.65h-2.475v-3.286h2.475c1.051,0,1.863.506,1.863,1.636Zm11.735,6.932v-.9h-4.843v-8.569h-1.011v9.474Zm9.992,0v-.9h-4.87v-3.42h4.151v-.9h-4.151v-3.34h4.87v-.9h-5.881v9.474Zm14.383,0-2.249-4.3a2.458,2.458,0,0,0,2.062-2.542,2.562,2.562,0,0,0-2.807-2.634h-3.633v9.474H181.5v-4.2h2.275l2.156,4.2Zm-1.2-6.826a1.667,1.667,0,0,1-1.889,1.73H181.5v-3.473h2.528a1.677,1.677,0,0,1,1.889,1.743Zm11.522,6.826v-.9h-4.87v-3.42h4.152v-.9h-4.152v-3.34h4.87v-.9h-5.881v9.474Zm10.152-2.608a2.372,2.372,0,0,0-.8-1.876,3.05,3.05,0,0,0-1.73-.665l-1.038-.16a2.727,2.727,0,0,1-1.277-.519,1.368,1.368,0,0,1-.426-1.091,1.75,1.75,0,0,1,2-1.756,2.985,2.985,0,0,1,2.209.812l.652-.652a3.8,3.8,0,0,0-2.821-1.038c-1.876,0-3.034,1.064-3.034,2.674a2.24,2.24,0,0,0,.719,1.77,3.446,3.446,0,0,0,1.743.719l1.1.173a2.043,2.043,0,0,1,1.238.452,1.525,1.525,0,0,1,.452,1.184c0,1.1-.851,1.756-2.235,1.756a3.255,3.255,0,0,1-2.581-1.038l-.692.692a4.13,4.13,0,0,0,3.247,1.251c1.969,0,3.273-1.025,3.273-2.688Zm10.724-2.129c0-2.009,0-2.94-.891-3.832a3.47,3.47,0,0,0-4.843,0c-.891.891-.891,1.823-.891,3.832s0,2.941.891,3.832a3.47,3.47,0,0,0,4.843,0c.891-.891.891-1.823.891-3.832Zm-1.011,0c0,1.983-.067,2.621-.665,3.233a2.313,2.313,0,0,1-3.273,0c-.6-.612-.665-1.251-.665-3.233s.066-2.621.665-3.233a2.312,2.312,0,0,1,3.273,0c.6.612.665,1.251.665,3.233Zm11.589,4.737v-.9h-4.843v-8.569h-1.011v9.474Zm10.165-3.127v-6.347h-1.011v6.267a2.3,2.3,0,1,1-4.591,0v-6.267h-1.011v6.347a3.308,3.308,0,0,0,6.613,0Zm10.471-5.442v-.9h-6.493v.9h2.741v8.569h1.011v-8.569Zm5.122,8.569v-9.474h-1.011v9.474ZM266,373.321c0-2.009,0-2.94-.891-3.832a3.47,3.47,0,0,0-4.843,0c-.892.891-.892,1.823-.892,3.832s0,2.941.892,3.832a3.47,3.47,0,0,0,4.843,0c.891-.891.891-1.823.891-3.832Zm-1.011,0c0,1.983-.066,2.621-.665,3.233a2.313,2.313,0,0,1-3.273,0c-.6-.612-.665-1.251-.665-3.233s.066-2.621.665-3.233a2.312,2.312,0,0,1,3.273,0c.6.612.665,1.251.665,3.233Zm12.733,4.737v-9.474h-1.011v7.571l-5.03-7.571h-.958v9.474h1.011v-7.6l5.03,7.6Z" transform="translate(-5.82 -195.011)"/><path class="e" d="M420.345,290.447a6.163,6.163,0,1,1-6.163,6.163,6.163,6.163,0,0,1,6.163-6.163Z" transform="translate(-255.743 -139.122)"/></g></g></svg>