<svg xmlns="http://www.w3.org/2000/svg" width="300" height="150" viewBox="0 0 300 150"><defs><style>.a,.c{fill:#1a1818;}.b{fill:#cb9a51;}.b,.c{fill-rule:evenodd;}.d{fill:none;}</style></defs><g transform="translate(-633 -238)"><g transform="translate(653 270)"><path class="a" d="M219.74,147.782h-1.321V118.613h1.321v29.169Z" transform="translate(-123.86 -61.887)"/><g transform="translate(106.203 0)"><g transform="translate(44.256)"><path class="b" d="M330.038,95.256a5.945,5.945,0,0,1-5.993.668,2.841,2.841,0,0,1-.965-.733c-.4-.5-10.52-11.92-10.52-11.92l-.033-.033a8.252,8.252,0,0,0,8.356-12.554c-2-2.827-5.894-3.761-9.156-3.328-5.66.8-9.724,5.826-10.986,11.089A29.319,29.319,0,0,0,302.4,95.422a14.62,14.62,0,0,0,1.865,3.3,26.616,26.616,0,0,1-13.353-36.526,26.419,26.419,0,0,1,35.962-11.121c7.756,3.863,13.618,13.485,13.65,22.074A26.423,26.423,0,0,1,330.038,95.256Z" transform="translate(-288.084 -47.919)"/><path class="b" d="M312.229,105.768c-2.9-3.131-5.227-7.194-3.462-11.422a39.039,39.039,0,0,0,3.629-10.254c.266,3.9,2.632,7.358,3.763,11.088a9.266,9.266,0,0,1-.232,5.525,16.262,16.262,0,0,1-3.463,5.33Z" transform="translate(-292.05 -55.066)"/></g><g transform="translate(0 55.562)"><path class="c" d="M260.832,147.488H253.12q-2.563-4.022-4.638-6.946T244,134.5h-2.93V143.6a3.283,3.283,0,0,0,.221,1.239,1.55,1.55,0,0,0,.952.814,5.91,5.91,0,0,0,1.267.263c.607.082,1.117.128,1.537.143v1.434H232.93v-1.434c.323-.026.792-.077,1.405-.143a4.4,4.4,0,0,0,1.281-.263,1.733,1.733,0,0,0,.876-.763,2.67,2.67,0,0,0,.275-1.289V122.878a3.479,3.479,0,0,0-.207-1.252,1.465,1.465,0,0,0-.944-.83,8.267,8.267,0,0,0-1.315-.329,12.426,12.426,0,0,0-1.371-.193v-1.434h13.225a14.964,14.964,0,0,1,3.41.376,9.208,9.208,0,0,1,2.888,1.194,6.076,6.076,0,0,1,2,2.111,6.229,6.229,0,0,1,.751,3.144,7.863,7.863,0,0,1-.51,2.927,6.062,6.062,0,0,1-1.488,2.2,8.846,8.846,0,0,1-2.184,1.5,16.1,16.1,0,0,1-2.8,1.081q2.117,2.812,3.521,4.729c.936,1.274,2.078,2.83,3.444,4.657a9.4,9.4,0,0,0,1.608,1.792,8.52,8.52,0,0,0,1.419.936,4.784,4.784,0,0,0,1.314.406,10.49,10.49,0,0,0,1.311.16v1.434Zm-10.621-21.361a5.229,5.229,0,0,0-5.712-5.655h-3.433v12.3h2.648a6.254,6.254,0,0,0,6.5-6.643ZM279.1,142.8a10.2,10.2,0,0,1-3.348,3.8,8.447,8.447,0,0,1-4.824,1.411,9.749,9.749,0,0,1-4.209-.849,8.18,8.18,0,0,1-2.978-2.3,9.868,9.868,0,0,1-1.751-3.393,14.5,14.5,0,0,1-.571-4.1,12.212,12.212,0,0,1,.612-3.806,10.7,10.7,0,0,1,1.813-3.363A8.769,8.769,0,0,1,266.7,127.9a8.225,8.225,0,0,1,3.824-.881,9.149,9.149,0,0,1,3.735.688,6.5,6.5,0,0,1,2.521,1.876,7.586,7.586,0,0,1,1.387,2.666,11.735,11.735,0,0,1,.453,3.328v1.335H265.435a15.634,15.634,0,0,0,.372,3.55,8.413,8.413,0,0,0,1.184,2.815,5.651,5.651,0,0,0,2.054,1.845,6.432,6.432,0,0,0,3.035.674,5.59,5.59,0,0,0,3.1-.84,8.34,8.34,0,0,0,2.509-3.02l1.411.87Zm-4.457-7.59a16.229,16.229,0,0,0-.192-2.421,7.546,7.546,0,0,0-.614-2.158,4.12,4.12,0,0,0-1.277-1.515,3.425,3.425,0,0,0-2.079-.585,4.319,4.319,0,0,0-3.522,1.765,8.24,8.24,0,0,0-1.522,4.915Zm15.713,12.276h-9.375V146.2l.958-.092a3.9,3.9,0,0,0,.839-.15,1.4,1.4,0,0,0,.818-.608,2.094,2.094,0,0,0,.273-1.139l-.3-21.256a8,8,0,0,0-.236-1.414,1.4,1.4,0,0,0-.176-.457,1.565,1.565,0,0,0-.171-.223c-.336-.3.081.118-.232-.163-.209-.183.083-.071-.538-.2a11.589,11.589,0,0,0-2.033.132l-.032-1.4,6.99-.383.334.287.026,24.84a2.206,2.206,0,0,0,.252,1.119,1.575,1.575,0,0,0,.818.672,4.492,4.492,0,0,0,.844.3,6.508,6.508,0,0,0,.947.139v1.284Zm12.047,0h-9.547v-1.321c.309-.026.623-.054.95-.079a3.675,3.675,0,0,0,.848-.166,1.409,1.409,0,0,0,.835-.63,2.274,2.274,0,0,0,.272-1.166v-12.19a2.446,2.446,0,0,0-.294-1.177,2.543,2.543,0,0,0-.813-.887,3.445,3.445,0,0,0-1.1-.409,8.022,8.022,0,0,0-1.32-.214v-1.3l6.971-.445.278.28v16.1a2.3,2.3,0,0,0,.267,1.161,1.6,1.6,0,0,0,.853.676,6.193,6.193,0,0,0,.863.293,5.368,5.368,0,0,0,.935.149v1.321Zm-2.521-27.763a2.9,2.9,0,0,1-.752,1.991,2.375,2.375,0,0,1-1.851.851,2.336,2.336,0,0,1-1.773-.813,2.664,2.664,0,0,1-.75-1.85,2.746,2.746,0,0,1,.75-1.918,2.331,2.331,0,0,1,1.773-.823,2.452,2.452,0,0,1,1.871.765,2.56,2.56,0,0,1,.732,1.8Zm23.813,27.4c-.635.227-1.185.411-1.66.558a5.881,5.881,0,0,1-1.626.213,3.975,3.975,0,0,1-2.516-.737,3.418,3.418,0,0,1-1.2-2.152h-.122a9.952,9.952,0,0,1-2.819,2.221,7.888,7.888,0,0,1-3.616.768,5.144,5.144,0,0,1-3.689-1.375A4.731,4.731,0,0,1,305,143.029a6.11,6.11,0,0,1,.324-2.059,4.96,4.96,0,0,1,.973-1.639,4.9,4.9,0,0,1,1.33-1.075,11.087,11.087,0,0,1,1.557-.76c.606-.225,1.833-.655,3.68-1.274a27.675,27.675,0,0,0,3.748-1.454v-2a7.623,7.623,0,0,0-.11-1.008,4.3,4.3,0,0,0-.476-1.413,3.833,3.833,0,0,0-1.144-1.3,3.371,3.371,0,0,0-2.088-.56,4.576,4.576,0,0,0-1.724.317,3.106,3.106,0,0,0-1.122.655,5.4,5.4,0,0,0,.193,1.192,6,6,0,0,1,.2,1.454,1.764,1.764,0,0,1-.635,1.29,2.529,2.529,0,0,1-1.772.586,1.662,1.662,0,0,1-1.482-.718,2.828,2.828,0,0,1-.474-1.607,2.874,2.874,0,0,1,.655-1.776,6.516,6.516,0,0,1,1.708-1.509,9.382,9.382,0,0,1,2.2-.962,8.567,8.567,0,0,1,2.524-.4,17.152,17.152,0,0,1,2.965.234,5.48,5.48,0,0,1,2.285,1,4.654,4.654,0,0,1,1.566,2.028,8.622,8.622,0,0,1,.537,3.3c0,1.927-.022,3.629-.063,5.117s-.06,3.114-.06,4.879a2.391,2.391,0,0,0,.274,1.248,2.277,2.277,0,0,0,.835.793,2.13,2.13,0,0,0,.956.2c.441.016.891.02,1.346.02v1.29Zm-7.042-10.663c-1.144.34-2.15.669-3.012,1a11.824,11.824,0,0,0-2.4,1.21,5.517,5.517,0,0,0-1.6,1.628,4.144,4.144,0,0,0-.585,2.226,3.152,3.152,0,0,0,.883,2.465,3.208,3.208,0,0,0,2.226.786,4.638,4.638,0,0,0,2.527-.694,7.226,7.226,0,0,0,1.834-1.65l.126-6.968Zm31,11.028H337.9v-1.332c.31-.026.653-.055,1.019-.08a4,4,0,0,0,.924-.164,1.425,1.425,0,0,0,.834-.636,2.234,2.234,0,0,0,.275-1.178v-10.24a4.839,4.839,0,0,0-1-3.267,3.124,3.124,0,0,0-2.432-1.148,5.634,5.634,0,0,0-1.964.329,6.856,6.856,0,0,0-1.572.819,4.514,4.514,0,0,0-1.061,1,9.229,9.229,0,0,0-.571.851V143.9a2.026,2.026,0,0,0,.282,1.131,1.784,1.784,0,0,0,.847.681,3.686,3.686,0,0,0,.917.3,7.947,7.947,0,0,0,1.021.144v1.332H325.67v-1.33c.309-.026.628-.056.958-.08a3.806,3.806,0,0,0,.861-.166,1.433,1.433,0,0,0,.835-.635,2.24,2.24,0,0,0,.274-1.18V131.8a2.694,2.694,0,0,0-.294-1.261,2.519,2.519,0,0,0-.815-.944,2.946,2.946,0,0,0-.909-.354,8.113,8.113,0,0,0-1.13-.151v-1.307l6.622-.448.284.28v2.805h.1c.324-.316.732-.709,1.212-1.158a10.692,10.692,0,0,1,1.372-1.1,7.285,7.285,0,0,1,1.777-.809,7.852,7.852,0,0,1,2.324-.324,5.063,5.063,0,0,1,4.25,1.786,7.548,7.548,0,0,1,1.378,4.757v10.356a2.328,2.328,0,0,0,.248,1.144,1.574,1.574,0,0,0,.827.672,5.083,5.083,0,0,0,.835.283,6.287,6.287,0,0,0,.977.123v1.332Zm11.653.523a8.429,8.429,0,0,1-6.766-2.868,11.444,11.444,0,0,1-2.439-7.689,11.673,11.673,0,0,1,.654-3.927,10.961,10.961,0,0,1,1.908-3.323,8.995,8.995,0,0,1,2.99-2.309,8.776,8.776,0,0,1,3.915-.883,7.616,7.616,0,0,1,4.764,1.407,4.55,4.55,0,0,1,1.839,3.824,3.3,3.3,0,0,1-.482,1.784,1.726,1.726,0,0,1-1.6.778,2.6,2.6,0,0,1-1.846-.607,1.807,1.807,0,0,1-.654-1.35,7.807,7.807,0,0,1,.241-1.868,9.68,9.68,0,0,0,.282-1.4,1.77,1.77,0,0,0-1.08-.835,5.259,5.259,0,0,0-1.546-.213,4.249,4.249,0,0,0-1.845.416,4.714,4.714,0,0,0-1.7,1.52,8.172,8.172,0,0,0-1.214,2.728,15.853,15.853,0,0,0-.469,4.094,10.452,10.452,0,0,0,1.67,6.134,5.116,5.116,0,0,0,4.367,2.37,5.5,5.5,0,0,0,3.288-.952A9.345,9.345,0,0,0,366.027,142l1.293.848a10.4,10.4,0,0,1-3.514,3.774,8.229,8.229,0,0,1-4.5,1.393Zm27.256-5.209a10.2,10.2,0,0,1-3.349,3.8,8.435,8.435,0,0,1-4.824,1.413,9.782,9.782,0,0,1-4.211-.849,8.247,8.247,0,0,1-2.978-2.3,9.908,9.908,0,0,1-1.749-3.393,14.51,14.51,0,0,1-.572-4.1,12.164,12.164,0,0,1,.613-3.8A10.76,10.76,0,0,1,371.3,130.2a8.8,8.8,0,0,1,2.853-2.309,8.239,8.239,0,0,1,3.826-.883,9.146,9.146,0,0,1,3.734.69,6.531,6.531,0,0,1,2.523,1.876,7.529,7.529,0,0,1,1.384,2.666,11.7,11.7,0,0,1,.456,3.328v1.335H372.895a15.594,15.594,0,0,0,.372,3.55,8.46,8.46,0,0,0,1.185,2.815,5.681,5.681,0,0,0,2.053,1.845,6.426,6.426,0,0,0,3.032.674,5.6,5.6,0,0,0,3.1-.84,8.315,8.315,0,0,0,2.508-3.02l1.414.87Zm-4.458-7.59a16.028,16.028,0,0,0-.193-2.421,7.521,7.521,0,0,0-.613-2.158,4.165,4.165,0,0,0-1.274-1.515,3.443,3.443,0,0,0-2.081-.587,4.319,4.319,0,0,0-3.523,1.766,8.235,8.235,0,0,0-1.523,4.915Z" transform="translate(-232.93 -117.162)"/></g></g><g transform="translate(0 56.06)"><path class="a" d="M124.134,130.461a.239.239,0,0,0-.181.189c0,.018-1.7,15.422-1.7,15.422l-.014.133c-.138,1.284-.262,2.493-1.212,2.666a4.72,4.72,0,0,1-1.058.1c-.338,0-.687.177-.687.5,0,.3.164.651.949.651.637,0,1.6-.047,2.288-.08l.83-.03.652.022c.737.039,1.85.088,2.789.088.271,0,.981,0,.981-.651a.559.559,0,0,0-.612-.5,6.4,6.4,0,0,1-1.333-.173.88.88,0,0,1-.725-.843c0-.632,0-1.289.04-1.87l1.054-12.262a.463.463,0,0,0-.069-.341l-.015-.026-1.728-2.835C124.3,130.465,124.193,130.454,124.134,130.461Z" transform="translate(-104.272 -120.287)"/><path class="a" d="M105.833,119.386l-.612.025-.573-.022c-.794-.033-2.276-.091-3.164-.091-.225,0-.908,0-.908.611a.559.559,0,0,0,.612.536,4.615,4.615,0,0,1,1.069.142c.674.154.954.651,1.025,1.785.071,1.174.071,2.218.071,7.978v6.516c0,3.467,0,6.46-.182,8-.151,1.09-.319,1.663-.82,1.765a5.907,5.907,0,0,1-1.051.14.552.552,0,0,0-.613.541c0,.611.688.611.909.611.79,0,2.174-.059,3-.095l.63-.018.43.017c.828.029,2.551.1,4.121.1.82,0,.908-.432.908-.611a.551.551,0,0,0-.611-.541,16.075,16.075,0,0,1-1.624-.146c-.856-.109-1.06-.658-1.171-1.753-.186-1.545-.186-4.538-.186-8.006v-6.516c0-5.761,0-6.8.071-7.978.075-1.248.331-1.672,1.113-1.82a5.778,5.778,0,0,1,.87-.108.558.558,0,0,0,.611-.536c0-.611-.688-.611-.906-.611C108.05,119.3,106.662,119.352,105.833,119.386Z" transform="translate(-100.576 -118.082)"/><path class="a" d="M124.71,117.829c-.258.13-.249.5-.111.781l.054.124,12.871,28.807c.132.258.283.317.386.317.146,0,.284-.1.407-.3l2.037-4.277c.009-.01.079-.221.079-.221a.682.682,0,0,0-.031-.558c-.142-.312-14.381-23.356-14.987-24.332l0,0C125.237,117.837,124.963,117.7,124.71,117.829Z" transform="translate(-105.304 -117.782)"/><path class="a" d="M154.883,119.394l-1.373,2.943-.032.061a.941.941,0,0,0-.1.643l2.075,22.273.014.135c.036.65-.114.97-.484,1.031a4.494,4.494,0,0,1-.638.077c-.373.025-.62.234-.62.5,0,.644.709.644.981.644,1.085,0,2.328-.051,2.807-.069l.133,0h.075l1.429.056.34.014c1.407.046,2.706.074,3.105.074.99,0,1.1-.452,1.1-.651,0-.116-.043-.5-.611-.5a7.814,7.814,0,0,1-2.319-.318c-1.425-.461-1.651-2.467-1.78-3.658l-2.492-22.76c-.049-.48-.139-1.282-.763-1.282C155.235,118.613,155,119.119,154.883,119.394Zm-.563,27.371a.1.1,0,0,0,.023,0A.042.042,0,0,1,154.32,146.765Z" transform="translate(-111.007 -117.946)"/><path class="a" d="M133.411,117.873c-.275.136-.231.539-.112.785,0-.009.05.115.05.115l9.572,21.815a.209.209,0,0,0,.19.143.248.248,0,0,0,.216-.138l2.13-4.463c0-.01.081-.223.081-.223a.728.728,0,0,0-.031-.558c-.146-.315-10.938-16.456-11.391-17.148v.008C133.929,117.878,133.662,117.745,133.411,117.873Z" transform="translate(-107.023 -117.791)"/><path class="a" d="M175.237,121.034c-3.966,2.494-6.338,7.15-6.338,12.452a14.689,14.689,0,0,0,4.52,10.79c3.064,2.678,7.234,4.037,12.388,4.037a18.462,18.462,0,0,0,8-1.705c.629-.363.647-.645.647-2.277v-4.144c0-1.545,0-2.658.071-3.832.076-1.248.332-1.679,1.114-1.821a5.645,5.645,0,0,1,.87-.105.558.558,0,0,0,.611-.54c0-.608-.683-.608-.908-.608-.806,0-2.249.058-3.021.087l-.61.023-.481-.017c-.794-.03-2.448-.094-3.7-.094-.221,0-.9,0-.9.608a.557.557,0,0,0,.611.54,6.589,6.589,0,0,1,1.185.1c1.22.331,1.424.477,1.424,3.507v6.291a1.033,1.033,0,0,1-.572,1.016,9.8,9.8,0,0,1-4.076.743,13.167,13.167,0,0,1-9.479-3.872,14.875,14.875,0,0,1-3.83-10.029c0-3.974,1.325-7.4,3.545-9.159a11.539,11.539,0,0,1,7.732-2.376c4.5,0,7.529,1.483,8.436,2.856a5.411,5.411,0,0,1,.729,2.3c.03.325.092.847.577.847.642,0,.642-.709.642-1.094a38.722,38.722,0,0,1,.213-4.645l.048-.6c0-.225-.094-.593-.728-.659a17.737,17.737,0,0,1-2.957-.362,32.3,32.3,0,0,0-5.74-.638A18.55,18.55,0,0,0,175.237,121.034Z" transform="translate(-114.076 -117.954)"/><path class="a" d="M142.073,117.862c-.274.138-.23.547-.111.786,0,0,.054.124.054.124L148,133.446a.242.242,0,0,0,.208.161.232.232,0,0,0,.2-.16l2.163-4.538.083-.216a.749.749,0,0,0-.036-.562c-.144-.309-7.062-8.958-7.851-9.941l.01.016C142.592,117.871,142.321,117.736,142.073,117.862Z" transform="translate(-108.735 -117.789)"/></g></g><rect class="d" width="300" height="150" transform="translate(633 238)"/></g></svg>