<svg xmlns="http://www.w3.org/2000/svg" width="280" height="150" viewBox="0 0 280 150"><defs><style>.a{fill:none;}.b{fill:#1a1818;}</style></defs><g transform="translate(-788 -297)"><rect class="a" width="280" height="150" transform="translate(788 297)"/><g transform="translate(722.417 96.644)"><path class="b" d="M359.922,281.5c-.064,3.626-2.671,7.076-7.741,7.076a7.844,7.844,0,0,1-8.051-7.194h4.542c.1,2.007,1.507,3.214,3.96,3.1a3.42,3.42,0,0,0,3.243-3.4c.043-1.727-.263-3.276-5.106-4.967-4.138-1.445-6.131-3.2-6.131-7.216s3.757-6.494,7.015-6.547c5.413-.088,7.918,3.4,7.841,6.311h-4.452a3.235,3.235,0,0,0-6.4.625c0,2.283,1.383,3.107,4.712,4.295C359.174,275.468,360,278.2,359.922,281.5Z" transform="translate(-166.873)"/><path class="b" d="M228.648,281.5c-.064,3.626-2.67,7.076-7.741,7.076a7.845,7.845,0,0,1-8.05-7.194H217.4c.1,2.007,1.508,3.214,3.959,3.1a3.421,3.421,0,0,0,3.243-3.4c.043-1.727-.264-3.276-5.106-4.967-4.138-1.445-6.13-3.2-6.13-7.216s3.756-6.494,7.015-6.547c5.412-.088,7.917,3.4,7.841,6.311h-4.452a3.236,3.236,0,0,0-6.4.625c0,2.283,1.384,3.107,4.713,4.295C227.9,275.468,228.728,278.2,228.648,281.5Z" transform="translate(-84.379)"/><g transform="translate(328.709 262.99)"><path class="b" d="M753.549,266.071l.229,0c.27,0,.484-.09.484-.306,0-.193-.135-.321-.444-.324a1.157,1.157,0,0,0-.267.027Zm-.026,1.177-.483,0,.016-2.086a3.988,3.988,0,0,1,.805-.072,1.226,1.226,0,0,1,.731.172.594.594,0,0,1,.2.449.542.542,0,0,1-.44.5v.023a.606.606,0,0,1,.379.516,1.4,1.4,0,0,0,.149.512l-.523,0a1.537,1.537,0,0,1-.162-.5c-.036-.229-.165-.331-.433-.334h-.231Zm.343-2.759a1.676,1.676,0,0,0,0,3.351,1.677,1.677,0,0,0,.013-3.351Zm.032-.427a2.107,2.107,0,1,1-2.193,2.086,2.126,2.126,0,0,1,2.179-2.086Z" transform="translate(-751.705 -264.062)"/></g><path class="b" d="M554.16,264.277h-3.87v24.659h13.532V285.4H554.34l-.18-.184Z" transform="translate(-296.425 -1.208)"/><path class="b" d="M491.316,264.277h-3.872v24.659h13.531V285.4l-9.48,0-.179-.179Z" transform="translate(-256.933 -1.208)"/><path class="b" d="M283.731,268l-.178-.179-6.582.005v-3.554H294.36v3.554l-6.574-.005-.18.179,0,20.931-3.873,0Z" transform="translate(-124.669 -1.208)"/><path class="b" d="M629.123,264.28H615.606v24.657h13.517V285.4h-9.476l-.177-.178v-6.928l.178-.176h7.889v-3.594h-7.889l-.178-.176v-6.337l.178-.178h9.476Z" transform="translate(-337.471 -1.209)"/><path class="b" d="M430.484,264.28H416.968v24.657h13.516V285.4h-9.475l-.178-.178v-6.928l.176-.176H428.9v-3.594h-7.892l-.176-.176v-6.337l.176-.178h9.477Z" transform="translate(-212.644 -1.209)"/><path class="b" d="M163.144,264.3H149.628v24.656h13.516v-3.54h-9.476l-.177-.176v-6.928l.178-.178h7.891v-3.592h-7.891l-.178-.178v-6.334l.178-.178h9.476Z" transform="translate(-44.645 -1.223)"/><path class="b" d="M691.405,264.3c-1.5,0-5.239,0-5.953.138v24.505h3.876c0-.343-.007-10.46-.007-10.46l.178-.17h1.888c1.755,0,2.385,1.152,3.163,2.859a57.608,57.608,0,0,1,2.538,7.773l4.217,0c-.4-1.291-1.825-5.613-3.073-8.956-.735-1.973-1.68-3.055-2.8-3.332v-.111c2.034-.8,4.257-2.218,4.354-5.845a5.908,5.908,0,0,0-1.517-4.614c-1.46-1.385-3.778-1.786-6.861-1.786m-1.9,10.242-.181-.18v-6.332l.178-.179,2.477-.005c2.867,0,3.866,1.824,3.866,3.271,0,2.874-1.894,3.462-3.856,3.426Z" transform="translate(-381.362 -1.219)"/><path class="b" d="M84.819,264.293h-.242c-1.477.012-5.293,0-5.995.127V288.9c.769.139,4.574.172,6.183.172,3.952,0,5.41-.443,6.98-1.84a6.482,6.482,0,0,0,1.887-5c0-3.656-1.7-5.318-3.885-6.13v-.111c1.659-.875,2.929-2.389,2.929-5.49a5.577,5.577,0,0,0-1.814-4.413c-1.45-1.3-3.409-1.795-6.042-1.795m-2.187,10.239-.178-.181,0-6.331.179-.179.626,0c.527,0,1.053,0,1.781,0,2.905,0,3.807,1.455,3.807,3.164,0,2.106-.846,3.528-3.629,3.528ZM83.68,285.41H82.629l-.179-.184v-6.919l.179-.181,2.4-.006c2.715,0,4.571,1.318,4.571,3.807,0,1.959-.9,3.483-4.355,3.495-.6,0-1.121-.012-1.56-.012" transform="translate(0 -1.218)"/></g></g></svg>