<svg xmlns="http://www.w3.org/2000/svg" width="280" height="150" viewBox="0 0 280 150"><defs><style>.a{fill:none;}.b{fill:#9f0d1d;}</style></defs><g transform="translate(-1104 -297)"><rect class="a" width="280" height="150" transform="translate(1104 297)"/><g transform="translate(1023.708 121.319)"><g transform="translate(93.292 221.681)"><path class="b" d="M452.08,280.627l-10.124-.026S437.9,270.885,437.1,268.9l-.733-1.811L432.262,256.9l-18.979-.057-2.259,5.944-1.085,2.673c-1.3,3.156-5.879,15.03-5.879,15.03l-2.418-.007s6.079-14.474,7.533-18.175l15.906-40.623,2.452.009,18.626,45.379C447.559,270.5,452.08,280.627,452.08,280.627Zm-20.5-25.5-8.99-22.366-8.6,22.313ZM264.209,280.556s.014-10.573.026-13.538l.093-31.782c.01-2.961.015-13.5.015-13.5l19.307.022c2.87.012,4.755.04,5.648.1a18.607,18.607,0,0,1,8.142,2.351,12.033,12.033,0,0,1,4.325,4.546,13.939,13.939,0,0,1-2.009,15.558,11.641,11.641,0,0,1-2.852,2.211,32.176,32.176,0,0,1-4.619,1.949A39.388,39.388,0,0,1,298.7,250a14.637,14.637,0,0,1,4.134,2.3,15.321,15.321,0,0,1,4.272,5.6,17.143,17.143,0,0,1,1.512,7.226,16.318,16.318,0,0,1-1.6,7.176,13.392,13.392,0,0,1-4.393,5.226,15.754,15.754,0,0,1-6.065,2.442,54.327,54.327,0,0,1-9.9.66Zm9.606-57.491-.081,25.617,3.494.007a38.667,38.667,0,0,0,5.094-.333,22.525,22.525,0,0,0,3.689-.8,10.216,10.216,0,0,0,2.566-1.283,10.842,10.842,0,0,0,3.4-4.2,13.372,13.372,0,0,0,1.2-5.667,16.121,16.121,0,0,0-1.209-6.238,11.377,11.377,0,0,0-3.247-4.6,9.855,9.855,0,0,0-4.022-1.954,33.41,33.41,0,0,0-6.882-.535Zm-.081,26.948-.054,17.767a24.259,24.259,0,0,0,.433,5.222,8.849,8.849,0,0,0,1.482,3.368q2.186,2.895,7.538,2.914,6.941.024,10.984-3.766t4.065-10.337a19.019,19.019,0,0,0-1.233-6.969,11.6,11.6,0,0,0-3.346-4.944q-3.871-3.206-12.153-3.232Zm77.321,30.544s.021-10.573.033-13.538l.093-31.782c.007-2.961.007-13.5.007-13.5l19.308.022c2.875.007,4.754.04,5.65.1a18.449,18.449,0,0,1,8.145,2.351,12,12,0,0,1,4.318,4.541,13.017,13.017,0,0,1,1.514,6.3,12.812,12.812,0,0,1-3.518,9.261,11.676,11.676,0,0,1-2.856,2.214,31.975,31.975,0,0,1-4.623,1.947,39.688,39.688,0,0,1,6.427,1.53,14.55,14.55,0,0,1,4.131,2.3,15.347,15.347,0,0,1,4.272,5.6,17.215,17.215,0,0,1,1.512,7.226,16.279,16.279,0,0,1-1.6,7.176,13.427,13.427,0,0,1-4.4,5.232,15.784,15.784,0,0,1-6.065,2.436,54.273,54.273,0,0,1-9.9.66Zm9.605-57.491-.076,25.612,3.491.012a38.733,38.733,0,0,0,5.1-.333,22.516,22.516,0,0,0,3.686-.8,10.318,10.318,0,0,0,2.57-1.283,10.931,10.931,0,0,0,3.4-4.2,13.339,13.339,0,0,0,1.2-5.662,15.968,15.968,0,0,0-1.209-6.238,11.34,11.34,0,0,0-3.247-4.6,9.806,9.806,0,0,0-4.022-1.954,33.361,33.361,0,0,0-6.874-.535Zm-.081,26.948-.052,17.767a24.269,24.269,0,0,0,.437,5.222,8.765,8.765,0,0,0,1.476,3.368c1.463,1.93,3.969,2.9,7.54,2.914q6.94.024,10.982-3.766t4.069-10.337a19.076,19.076,0,0,0-1.232-6.969,11.618,11.618,0,0,0-3.351-4.944q-3.866-3.21-12.156-3.232Zm-28.671-28.245s0,11.551,0,13.538l-.1,31.782c0,2.385-.012,13.54-.012,13.54l-9.484-.026s.048-10.579.057-13.543l.095-31.782c.01-2.961.024-13.538.024-13.538Z" transform="translate(-197.933 -221.681)"/><g transform="translate(0 3.201)"><path class="b" d="M108.344,229.936l-.741.8a30.621,30.621,0,0,1-3.81,3.652c-.857.674-1.766,1.276-2.733,1.911-.447.3-.912.6-1.391.928a18.233,18.233,0,0,0-4.455,4.034,8.9,8.9,0,0,0-1.88,6.164l.117,1.076.783-.745a27.434,27.434,0,0,1,4.072-3.334c.611-.4,1.23-.783,1.892-1.183.81-.5,1.645-1.007,2.5-1.595a15.116,15.116,0,0,0,4.416-4.356,9.107,9.107,0,0,0,1.407-6.274Z" transform="translate(-93.292 -229.936)"/><path class="b" d="M143.226,241.64c.859.592,1.7,1.1,2.507,1.6.661.4,1.285.78,1.9,1.188a27.443,27.443,0,0,1,4.066,3.329l.783.745.117-1.076a8.883,8.883,0,0,0-1.881-6.164,18.226,18.226,0,0,0-4.455-4.034c-.475-.324-.94-.626-1.39-.928-.964-.635-1.876-1.237-2.737-1.921a29.558,29.558,0,0,1-3.8-3.642l-.743-.8-.181,1.078a9.085,9.085,0,0,0,1.41,6.274A15,15,0,0,0,143.226,241.64Z" transform="translate(-120.235 -229.936)"/><path class="b" d="M152.478,280.348l-.783.749a27.128,27.128,0,0,1-4.075,3.328c-.6.407-1.225.789-1.887,1.187-.807.5-1.648,1-2.507,1.6a14.979,14.979,0,0,0-4.412,4.355,9.08,9.08,0,0,0-1.41,6.274l.181,1.073.743-.8a29.854,29.854,0,0,1,3.813-3.651c.852-.67,1.764-1.273,2.728-1.911.45-.3.914-.6,1.39-.928a18.185,18.185,0,0,0,4.455-4.034,8.884,8.884,0,0,0,1.881-6.165Z" transform="translate(-120.235 -260.8)"/><path class="b" d="M102.708,287.21c-.864-.593-1.7-1.1-2.508-1.6-.662-.4-1.281-.781-1.895-1.19a27.106,27.106,0,0,1-4.07-3.326l-.783-.749-.117,1.076a8.9,8.9,0,0,0,1.88,6.165,18.192,18.192,0,0,0,4.455,4.034c.479.326.943.63,1.391.928.966.638,1.876,1.24,2.737,1.916a30.5,30.5,0,0,1,3.806,3.646l.741.8.181-1.073a9.111,9.111,0,0,0-1.407-6.276A15.1,15.1,0,0,0,102.708,287.21Z" transform="translate(-93.292 -260.8)"/><path class="b" d="M152.478,317.574l-.783.745a26.915,26.915,0,0,1-4.075,3.335c-.6.4-1.225.78-1.887,1.188-.807.49-1.648,1-2.507,1.592a15.03,15.03,0,0,0-4.412,4.355,9.086,9.086,0,0,0-1.41,6.274l.181,1.078.743-.8a29.693,29.693,0,0,1,3.813-3.651c.852-.676,1.764-1.276,2.728-1.909.45-.3.914-.6,1.39-.931a18.215,18.215,0,0,0,4.455-4.034,8.877,8.877,0,0,0,1.881-6.162Z" transform="translate(-120.235 -283.591)"/><path class="b" d="M102.708,324.434c-.864-.593-1.7-1.1-2.508-1.592-.662-.408-1.281-.786-1.895-1.193a26.718,26.718,0,0,1-4.07-3.33l-.783-.745-.117,1.078a8.889,8.889,0,0,0,1.88,6.162,18.223,18.223,0,0,0,4.455,4.034c.479.328.943.631,1.391.931.966.633,1.876,1.232,2.737,1.913a30.4,30.4,0,0,1,3.806,3.647l.741.8.181-1.078a9.109,9.109,0,0,0-1.407-6.274A15.129,15.129,0,0,0,102.708,324.434Z" transform="translate(-93.292 -283.591)"/></g></g></g></g></svg>