<svg xmlns="http://www.w3.org/2000/svg" width="280" height="150" viewBox="0 0 280 150"><defs><style>.a{fill:none;}.b{fill:#f9b101;}.c{fill:#703e2b;}</style></defs><g transform="translate(-167 -504)"><rect class="a" width="280" height="150" transform="translate(167 504)"/><g transform="translate(77.498 451.879)"><rect class="b" width="5.099" height="5.101" transform="translate(126.214 109.849)"/><path class="c" d="M199,132.644h2.8v-12.62H199v-2.5h8.617v2.5h-2.871v5.06h8.516v-5.06h-2.873v-2.5H219v2.5h-2.8v12.62H219v2.5h-8.617v-2.5h2.873v-5.062h-8.516v5.062h2.871v2.5H199Z" transform="translate(-52.616 -13.711)"/><path class="c" d="M274.359,125.687a8.881,8.881,0,0,1-9.164,9.27c-5.51,0-9.131-4.071-9.131-9.27a9.148,9.148,0,1,1,18.295,0m-3.012.033c0-3.865-2.6-6.53-6.118-6.53-3.56,0-6.124,2.635-6.124,6.53,0,3.966,2.6,6.568,6.09,6.568C268.75,132.288,271.347,129.686,271.347,125.72Z" transform="translate(-83.416 -13.151)"/><path class="c" d="M313.681,128.538c0,2.839,1.538,4.48,4.07,4.48,2.5,0,4.068-1.538,4.068-4.411v-8.585H319.05v-2.5h8.345v2.5h-2.667v8.413c0,4.72-2.8,7.114-7.013,7.114-4.308,0-6.976-2.36-6.976-7.011v-8.516h-2.666v-2.5h8.345v2.5h-2.737Z" transform="translate(-111.484 -13.71)"/><path class="c" d="M372.356,119.666a5.224,5.224,0,0,0-2.871-.718c-1.913,0-3.251.887-3.251,2.358,0,1.61,2.019,2.225,3.732,2.875,3.144,1.093,6.189,2.152,6.189,5.5,0,3.491-2.839,5.271-6.738,5.271-3.762,0-6.738-1.988-6.738-4.245a1.875,1.875,0,0,1,1.913-2.119,1.9,1.9,0,0,1,2.02,1.813,2.323,2.323,0,0,1-.343,1.2,5.5,5.5,0,0,0,3.251.893c2.258,0,3.727-.855,3.727-2.568,0-1.57-2.054-2.291-3.794-2.873-3.354-1.162-6.193-2.154-6.193-5.47,0-3.012,2.532-5.1,6.431-5.1,3.555,0,6.222,1.78,6.222,4.036a1.809,1.809,0,0,1-1.81,1.983,1.872,1.872,0,0,1-2.055-1.812,1.762,1.762,0,0,1,.307-1.026" transform="translate(-140.954 -13.149)"/><path class="c" d="M405.995,135.139v-2.5H408.8v-12.62h-2.806v-2.5h14.434v5.609h-2.736v-3.178h-5.95v5.163h5.436v2.394h-5.436v5.164h5.95V129.6h2.736v5.54Z" transform="translate(-164.332 -13.711)"/><path class="c" d="M494.139,125.687a8.882,8.882,0,0,1-9.165,9.27c-5.508,0-9.133-4.071-9.133-9.27a9.149,9.149,0,1,1,18.3,0m-3.012.033c0-3.865-2.6-6.53-6.12-6.53-3.556,0-6.12,2.635-6.12,6.53,0,3.966,2.6,6.568,6.088,6.568C488.531,132.288,491.127,129.686,491.127,125.72Z" transform="translate(-202.028 -13.151)"/><path class="c" d="M529.185,135.139v-2.5h2.806v-12.62h-2.806v-2.5h14.366v5.609h-2.77v-3.178h-5.849v5.366h5.336v2.4h-5.336v4.924h2.977v2.5Z" transform="translate(-230.817 -13.711)"/><rect class="c" width="166.354" height="1.236" transform="translate(146.38 92.121)"/><path class="c" d="M116.5,179.567v2.5H114.04l4.651,12.62h2.015v2.5h-7.59V194.72h2.6l-1.162-3.251h-6.877l-1.162,3.251h2.6v2.463h-7.524v-2.5h2.051l4.618-12.62h-2.463v-2.5Zm-7.969,9.51H113.7l-2.6-7.217Z" transform="translate(-0.046 -47.194)"/><path class="c" d="M169.257,191.47v-9.4h-2.768v-2.5H174.9v2.5h-2.839v15.22h-1.952l-9.676-12.724v10.122h2.7v2.5h-8.345v-2.5h2.8V182.067h-2.8v-2.5h5.334Z" transform="translate(-28.76 -47.194)"/><path class="c" d="M211.036,197.184v-2.5h2.906V182.067h-2.906v-2.5h8.757v2.5h-2.909v12.618h2.909v2.5Z" transform="translate(-59.115 -47.194)"/><path class="c" d="M246.821,194.686h2.908V182H245.8v3.419h-2.737v-5.849H259.34v5.849H256.6V182H252.67v12.686h2.907v2.5h-8.757Z" transform="translate(-76.397 -47.195)"/><path class="c" d="M302.552,179.567v2.5H300.09l4.65,12.62h2.018v2.5h-7.593V194.72h2.6L300.6,191.47h-6.877l-1.162,3.251h2.6v2.463h-7.526v-2.5h2.054l4.617-12.62h-2.463v-2.5Zm-7.97,9.51h5.166l-2.6-7.217Z" transform="translate(-100.456 -47.194)"/><path class="c" d="M364.911,197.185v-2.5h2.806V182.068h-2.806v-2.5h7.7c6.29,0,10.155,3.317,10.155,8.619,0,5.369-3.623,9-10.363,9Zm7.9-2.5c4.653,0,6.978-2.6,6.978-6.465,0-3.9-2.734-6.153-7.18-6.153h-1.95v12.618Z" transform="translate(-142.159 -47.195)"/><path class="c" d="M435.519,187.73A8.881,8.881,0,0,1,426.353,197c-5.507,0-9.134-4.071-9.134-9.269a9.15,9.15,0,1,1,18.3,0m-3.01.034c0-3.865-2.6-6.534-6.122-6.534-3.556,0-6.12,2.636-6.12,6.534,0,3.966,2.6,6.567,6.088,6.567C429.911,194.331,432.508,191.73,432.508,187.764Z" transform="translate(-170.39 -46.635)"/><path class="c" d="M485.035,191.47v-9.4h-2.77v-2.5h8.411v2.5H487.84v15.22h-1.95l-9.68-12.724v10.122h2.7v2.5h-8.346v-2.5h2.8V182.067h-2.8v-2.5H475.9Z" transform="translate(-199.181 -47.194)"/><path class="c" d="M529.563,187.8c0,3.9,2.77,6.635,6.088,6.635a7.591,7.591,0,0,0,4.447-1.3v-3.148h-4.55v-2.395h7.423v9.031h-2.8v-1.267A8.2,8.2,0,0,1,535.1,197c-4.447,0-8.585-3.457-8.585-9.169a9.055,9.055,0,0,1,9.441-9.3c4.17,0,6.941,2.325,6.941,4.482a2.015,2.015,0,0,1-2.017,2.219,1.851,1.851,0,0,1-2.02-1.879,1.875,1.875,0,0,1,.41-1.128,5.516,5.516,0,0,0-3.487-1.062c-3.661,0-6.226,2.77-6.226,6.637" transform="translate(-229.379 -46.634)"/><path class="c" d="M583.679,194.684h2.7v2.5h-8.449v-2.5h2.807V182.066h-2.807v-2.5h8.176c4.1,0,6.942,1.813,6.942,5.334a5.14,5.14,0,0,1-3.386,4.791l2.772,4.993h2.53v2.5h-4.686l-3.489-6.772a10.624,10.624,0,0,1-1.267.066c-.511,0-1.3,0-1.846-.03Zm0-12.618v5.846c.513.036,1.436.1,2.327.1,2.461,0,4.071-1.162,4.071-3.077,0-1.847-1.573-2.871-4.14-2.871Z" transform="translate(-257.125 -47.194)"/><path class="c" d="M626.527,197.184v-2.5h2.8V182.067h-2.8v-2.5h14.432v5.609h-2.736V182h-5.95v5.163h5.435v2.394h-5.435v5.166h5.95v-3.079h2.736v5.542Z" transform="translate(-283.351 -47.194)"/><rect class="c" width="256.066" height="1.236" transform="translate(101.502 160.453)"/><rect class="b" width="5.099" height="5.101" transform="translate(327.799 109.849)"/></g></g></svg>