<svg xmlns="http://www.w3.org/2000/svg" width="280" height="150" viewBox="0 0 280 150"><defs><style>.a{fill:#282b2b;}.a,.b,.c,.d{fill-rule:evenodd;}.b{fill:#d8317a;}.c{fill:#f48f18;}.d{fill:#db0920;}.e{fill:none;}</style></defs><g transform="translate(-790 -504)"><g transform="translate(760.665 324.49)"><path class="a" d="M64.021,291.753c-8.806-.1-13.094-3.943-13.094-11.718v-44.91h6.4V278.83a7.311,7.311,0,0,0,1.97,5.362,6.8,6.8,0,0,0,4.729,1.947Z" transform="translate(0 -13.679)"/><path class="a" d="M97.774,318.119V282.341H92.313v-5.275h11.864v41.053Z" transform="translate(-25.902 -39.929)"/><path class="a" d="M145.433,291.839V256.92h-5.8v-6.006h5.846v-.367c0-4.783,1.1-8.1,3.7-11.081a12.318,12.318,0,0,1,9.748-4.249,21.427,21.427,0,0,1,6.189,1l-1.733,4.5a12.45,12.45,0,0,0-3.848-.66,7.2,7.2,0,0,0-5.7,2.614,9.515,9.515,0,0,0-2.232,6.494c0,.394,0,.577-.009.752,0,.158-.016.322-.016.632v.367h8.4v6.006h-8.146v34.919Z" transform="translate(-55.519 -13.738)"/><path class="a" d="M214.2,317.939a17.457,17.457,0,0,1-12.575-5.035c-3.83-3.683-5.78-8.736-5.78-14.991,0-6.5,1.992-11.8,5.919-15.719a17.282,17.282,0,0,1,12.511-5.248c5.595,0,10.039,1.592,13.187,4.729,3.048,3,4.6,7.073,4.6,12.08a16.1,16.1,0,0,1-.471,3.98l-29,0v.387c0,4.793,1.332,8.537,3.958,11.13a12.486,12.486,0,0,0,9.033,3.422,15.424,15.424,0,0,0,10.088-3.383l2.61,4.491a13.648,13.648,0,0,1-4.7,2.6,26.9,26.9,0,0,1-9.384,1.555m.239-35.51a11.5,11.5,0,0,0-8.247,3.2,11.65,11.65,0,0,0-3.6,7.544l-.043.4h23.012V293.2a10.593,10.593,0,0,0-2.814-7.481A10.841,10.841,0,0,0,214.441,282.429Z" transform="translate(-90.7 -39.854)"/><path class="a" d="M315.544,317.912a23.537,23.537,0,0,1-11.414-2.949l2.227-6.039c3.837,2.456,6.982,3.719,9.38,3.719,4.621,0,6.959-2.01,6.959-5.943,0-2.8-2.22-5.2-6.592-7.162a53.447,53.447,0,0,1-6.56-3.4,14.028,14.028,0,0,1-2.879-2.584,10.117,10.117,0,0,1-1.806-3.039,9.634,9.634,0,0,1-.594-3.469A8.948,8.948,0,0,1,307.7,279.6a14.691,14.691,0,0,1,9.162-2.7c2.758,0,6.324.88,10.576,2.619l-1.763,5.749a13.793,13.793,0,0,0-8.3-3.085,7.646,7.646,0,0,0-4.479,1.263,3.974,3.974,0,0,0-1.911,3.354c0,2.717,1.553,4.8,4.6,6.2l5.086,2.327a17.9,17.9,0,0,1,6.7,4.774,10.622,10.622,0,0,1,2.039,6.648,9.923,9.923,0,0,1-3.661,8.182c-2.418,1.982-5.854,2.981-10.218,2.981" transform="translate(-158.472 -39.827)"/><path class="a" d="M391.943,299.735a10.212,10.212,0,0,1-7.8-3.441,12.405,12.405,0,0,1-3.179-8.719V264.344h-4.7v-5.491h4.7v-8.534l6.4-2.46v10.994h11.055v5.491H387.361v20.372c0,3.447.579,5.957,1.774,7.461,1.228,1.507,3.173,2.29,5.815,2.29a13.683,13.683,0,0,0,5.395-1.193l.913,5.43a39.425,39.425,0,0,1-9.314,1.032" transform="translate(-203.617 -21.649)"/><path class="a" d="M449.045,327.473a13.741,13.741,0,0,0,7.477-2.147c2.229-1.445,3.359-3.261,3.359-5.395a19.078,19.078,0,0,0-1.19-6.627c-.831-2.285-1.835-4.956-3.011-7.956l-10.934-28.135h6.464l12.341,32.48,11.228-32.641h6.457l-17.181,47.354a12.162,12.162,0,0,1-5.658,6.2,19.246,19.246,0,0,1-9.351,2.493Z" transform="translate(-246.478 -39.92)"/><path class="a" d="M565.641,291.753c-8.8-.1-13.086-3.943-13.086-11.718v-44.91h6.4V278.83a7.337,7.337,0,0,0,1.956,5.362,6.793,6.793,0,0,0,4.731,1.947Z" transform="translate(-313.953 -13.679)"/><path class="a" d="M607.565,317.912a17.4,17.4,0,0,1-12.593-5.049c-3.819-3.69-5.761-8.723-5.761-14.977,0-6.515,1.989-11.8,5.924-15.719a17.232,17.232,0,0,1,12.5-5.264c5.593,0,10.026,1.6,13.178,4.734,3.053,3.009,4.6,7.085,4.6,12.089a15.651,15.651,0,0,1-.469,3.965H595.952v.381c0,4.8,1.322,8.553,3.95,11.142a12.5,12.5,0,0,0,9.039,3.429,15.369,15.369,0,0,0,10.077-3.383l2.617,4.491a13.432,13.432,0,0,1-4.716,2.6,26.608,26.608,0,0,1-9.354,1.562m.458-35.729a11.494,11.494,0,0,0-8.266,3.191,11.688,11.688,0,0,0-3.6,7.521l-.036.409h23.018v-.376a10.681,10.681,0,0,0-2.782-7.47A10.993,10.993,0,0,0,608.023,282.183Z" transform="translate(-336.895 -39.827)"/><path class="b" d="M100.647,230.9a8.416,8.416,0,1,1-8.425-8.425,8.409,8.409,0,0,1,8.425,8.425" transform="translate(-20.583 -5.76)"/><path class="c" d="M123.435,220.918a7.647,7.647,0,1,1-7.65-7.65,7.64,7.64,0,0,1,7.65,7.65" transform="translate(-35.808)"/><path class="d" d="M109.247,223.014a7.65,7.65,0,0,0,5.886,11.627,8.323,8.323,0,0,0,.724-3.406,8.414,8.414,0,0,0-6.61-8.222" transform="translate(-35.793 -6.1)"/></g><rect class="e" width="280" height="150" transform="translate(790 504)"/></g></svg>