<svg xmlns="http://www.w3.org/2000/svg" width="250" height="150" viewBox="0 0 250 150"><defs><style>.a{fill:#005da8;}.a,.b,.c{fill-rule:evenodd;}.b{fill:#e10020;}.c{fill:#fff;}.d{fill:none;}</style></defs><g transform="translate(-1114 -504)"><g transform="translate(1086.155 311.13)"><path class="a" d="M73.712,300.549c.646-3.026,1.241-5.865,1.861-8.7q2.612-11.935,5.233-23.872c.867-4,1.746-8,2.519-12.016a8.168,8.168,0,0,0,.013-3.292c-.763-3.392-3.728-4.172-6.814-3.532-3.947.806-5.721,3.845-6.518,7.424-2.587,11.6-5.038,23.225-7.55,34.84-.418,1.933-.862,3.865-1.318,5.791a3.922,3.922,0,0,1-4.265,3.353q-8.474.02-16.95.007c-.3,0-.608-.04-1.078-.074.41-2.012.788-3.938,1.2-5.858q3.564-16.444,7.144-32.888c1.25-5.718,2.546-11.423,3.815-17.134.653-2.939.062-5.451-2.435-7.35a11.566,11.566,0,0,1-1.128-1.22,10.958,10.958,0,0,1,1.262-.193q11.211-.01,22.423.007c1.957.006,2.407.566,2.027,2.512-.227,1.166-.55,2.306-.73,3.479-.055.367.218.779.342,1.173.33-.153.755-.213.973-.46,3.987-4.465,9.111-6.73,14.873-7.8a26.818,26.818,0,0,1,11.186.013,11.431,11.431,0,0,1,8.757,7.53c.16.433.36.86.593,1.427.963-1.027,1.82-1.966,2.706-2.879a22.172,22.172,0,0,1,13.661-6.371c3.532-.427,7.064-.613,10.47.786A8.974,8.974,0,0,1,141.793,243c.463,3.439-.52,6.638-1.2,9.89-1.966,9.39-4.032,18.767-6.068,28.143q-1.734,8-3.5,15.987a4.081,4.081,0,0,1-4.4,3.539h-18c.716-3.439,1.393-6.785,2.119-10.11,1.57-7.177,3.169-14.348,4.745-21.526.863-3.912,1.776-7.817,2.522-11.749a15.037,15.037,0,0,0,.143-4.425c-.257-2.352-2.056-3.565-4.429-3.739-4.642-.346-7.647,2.626-8.763,7.378-1.806,7.711-3.412,15.468-5.092,23.2-1.266,5.852-2.5,11.709-3.782,17.561a4.014,4.014,0,0,1-4.282,3.391C85.854,300.556,79.9,300.549,73.712,300.549Z" transform="translate(0 0)"/><path class="a" d="M334.3,253.8a27.735,27.735,0,0,1,4.558-9.689c3.466-4.605,8.231-7.124,13.678-8.563,5.771-1.526,11.676-1.52,17.554-1.24a27.41,27.41,0,0,1,11.622,2.732,9.713,9.713,0,0,1,5.489,7.624c.466,3.172-.344,6.131-.963,9.123-1.493,7.277-3.109,14.528-4.691,21.785-1.269,5.851-2.649,11.675-3.806,17.547a35.4,35.4,0,0,0-.227,5.771c-.013.493,0,.979,0,1.579-.4.027-.787.087-1.166.087q-7.408,0-14.811-.007c-2.718-.007-4.015-1.667-3.462-4.346a3.981,3.981,0,0,0-.043-.966c-.344.12-.8.14-1.01.38-3.413,3.859-7.867,5.491-12.809,6.265a32.541,32.541,0,0,1-10.166.233c-5.685-.913-9.64-3.385-9.667-10.522a31.977,31.977,0,0,1,5.654-19.006,18.365,18.365,0,0,1,10.453-7.131c4.784-1.319,9.673-2.246,14.488-3.472a46.914,46.914,0,0,0,7.884-2.479c3.362-1.539,5.275-6.718,4.135-10.189a5.058,5.058,0,0,0-4.439-3.252,8.445,8.445,0,0,0-8.834,5.032c-1.076,2.126-3.235,2.419-5.318,2.692a10.72,10.72,0,0,1-1.466.013Zm29.876,12.942c-.623.207-.953.293-1.266.413-3,1.173-5.985,2.366-8.987,3.526a9.629,9.629,0,0,0-5.4,4.678,17.467,17.467,0,0,0-1.946,8.944,4.916,4.916,0,0,0,4.188,4.632c4.361.347,7.194-1.1,9.016-5.051C362.253,278.531,362.534,272.593,364.173,266.742Z" transform="translate(-185.067 0)"/><path class="b" d="M455.634,315.6c.966-1.4,1.916-2.8,2.892-4.192q9.956-14.165,19.926-28.33c3.622-5.151,7.224-10.322,10.89-15.447a2.533,2.533,0,0,0,.253-3.085c-5.1-9.55-10.106-19.153-15.145-28.736-.226-.433-.44-.866-.73-1.432a9.3,9.3,0,0,1,1.08-.127q7.273-.031,14.541-.04c2.659-.007,4.4,1.453,5.581,3.665,1.846,3.439,3.615,6.924,5.424,10.383.284.547.611,1.066,1.026,1.793a17.357,17.357,0,0,0,1.17-1.353c3.175-4.5,6.351-9,9.487-13.515a1.976,1.976,0,0,1,1.858-.953c7.295.033,14.592,0,21.885.04a7.215,7.215,0,0,1,1.839.493,6.636,6.636,0,0,1-.9,1.806c-4,4.045-8.037,8.043-12.075,12.042-4.955,4.911-9.907,9.83-14.9,14.7a1.68,1.68,0,0,0-.364,2.386q8.8,16.733,17.487,33.507c.157.307.26.633.463,1.14H512.156a6.31,6.31,0,0,1-5.931-3.586c-3.146-5.964-6.231-11.962-9.347-17.94-.263-.507-.559-.993-.926-1.639a10.842,10.842,0,0,0-.98.76q-8.512,8.357-17.014,16.727-10.467,10.266-20.939,20.519a6.215,6.215,0,0,1-1.107.713Z" transform="translate(-270.144 -0.032)"/><path class="c" d="M405.026,326.758c-1.639,5.851-1.92,11.789-4.392,17.14-1.822,3.952-4.655,5.4-9.016,5.051a4.916,4.916,0,0,1-4.188-4.632,17.467,17.467,0,0,1,1.946-8.944,9.629,9.629,0,0,1,5.4-4.678c3-1.16,5.991-2.352,8.987-3.526C404.073,327.051,404.4,326.965,405.026,326.758Z" transform="translate(-225.92 -60.016)"/></g><rect class="d" width="250" height="150" transform="translate(1114 504)"/></g></svg>