<svg xmlns="http://www.w3.org/2000/svg" width="300" height="150" viewBox="0 0 300 150"><defs><style>.a,.b{fill:#1a1818;}.a,.c{fill-rule:evenodd;}.c{fill:#fff;}.d{fill:none;}</style></defs><g transform="translate(-117 -711)"><g transform="translate(77.533 550.998)"><g transform="translate(79.762 259.124)"><path class="a" d="M410.068,361.782v-1.964h-6.546v12.993h6.546v-1.967h-4.486v-4.167H409.7v-1.85h-4.114v-3.045Z" transform="translate(-299.711 -359.649)"/><path class="a" d="M367.71,365.768c.255-.582.519-1.194.736-1.713,0,.3,0,.628,0,.99,0,.324,0,.649,0,.979l.135,6.786h2.049l-.449-12.993H368.5s-2.94,6.472-3.306,7.285c-.364-.813-3.278-7.285-3.278-7.285h-1.712l-.435,12.993h2.055l.139-6.786V364.11c.191.5.44,1.076.719,1.658l2.512,5.243Z" transform="translate(-272.533 -359.649)"/><path class="a" d="M523.38,366.2c0,.628.053,1.462.119,2.2-.225-.536-.51-1.172-.853-1.9l-3.223-6.679H517.47v12.993h2.061v-6.659c0-.639-.046-1.476-.108-2.232.25.592.541,1.266.849,1.934l3.386,6.956h1.788V359.818H523.38Z" transform="translate(-370.499 -359.649)"/><path class="a" d="M459.722,359.818v12.993h2.07v-6.135h4.026v6.135h2.061V359.818h-2.061v5.008h-4.026v-5.008Z" transform="translate(-334.624 -359.649)"/><rect class="b" width="2.102" height="12.993" transform="translate(139.069 0.169)"/><path class="a" d="M154.93,361.788h3.059v11.022h2.066V361.788h2.827l.244-1.97h-8.2Z" transform="translate(-145.279 -359.649)"/><path class="a" d="M428.58,361.788h3.035v11.022h2.068V361.788h2.833l.225-1.97H428.58Z" transform="translate(-315.278 -359.649)"/><path class="a" d="M647.165,372.811h6.547v-1.967H649.25v-4.167h4.113v-1.85H649.25v-3.045h4.462v-1.964h-6.547Z" transform="translate(-451.07 -359.649)"/><path class="a" d="M299.154,361.2a6.741,6.741,0,0,1,2.062.431l.312.125v-1.888l-.123-.065a5.753,5.753,0,0,0-2.251-.43c-1.868,0-3.865.9-3.865,3.481a3.974,3.974,0,0,0,2.024,3.3l1.293.871a2.384,2.384,0,0,1,1.335,2.03c0,1.262-.578,1.785-1.978,1.785a9.72,9.72,0,0,1-2.234-.419l-.312-.088v1.933l.161.047a8.189,8.189,0,0,0,2.421.394c1.725,0,4.014-.394,4.014-3.772,0-1.889-1.116-2.819-2.359-3.707l-1-.681c-.786-.554-1.342-1.006-1.342-1.825C297.313,361.673,297.881,361.2,299.154,361.2Z" transform="translate(-232.474 -359.371)"/><path class="a" d="M250.789,372.811V361.788h2.848l.218-1.97h-8.173v1.97h3.034v11.022Z" transform="translate(-201.656 -359.649)"/><path class="a" d="M224.208,368.9a5.637,5.637,0,0,0-1.06-1.879,3.319,3.319,0,0,0,2.273-3.445c0-3.3-2.295-3.76-4.757-3.76H217.8v12.993h2.069V367.6a1.362,1.362,0,0,0,.2-.02l1.041-.082a5.72,5.72,0,0,1,1.178,2.3l.974,3.01h2.441Zm-4.336-3.058v-4.107h.484c2.161,0,3.007.144,3.007,1.842C223.363,365.186,222.517,365.731,219.872,365.843Z" transform="translate(-184.337 -359.649)"/><path class="a" d="M683.734,368.482s-.115.83-.214,1.646c-.1-.583-.208-1.222-.311-1.662l-1.779-8.647H678.86l-1.841,8.647c-.086.438-.187,1.047-.289,1.611-.088-.8-.186-1.594-.186-1.594l-1.144-8.664h-2.343l2.427,12.993h2.456l1.83-8.709s.192-1.054.366-1.943c.157.919.343,1.943.343,1.943l1.808,8.709h2.478l2.449-12.993h-2.339Z" transform="translate(-467.155 -359.649)"/><path class="a" d="M133.812,365.236l-1.006-.687c-.781-.554-1.331-1.018-1.331-1.825,0-1.051.564-1.526,1.824-1.526a6.925,6.925,0,0,1,2.073.431l.318.125v-1.888l-.148-.065a5.654,5.654,0,0,0-2.243-.43c-1.85,0-3.851.9-3.851,3.481a3.961,3.961,0,0,0,2,3.3l1.3.871c.874.592,1.344,1.1,1.344,2.03,0,1.262-.6,1.785-1.972,1.785a10.234,10.234,0,0,1-2.26-.419l-.294-.088v1.933l.162.047a8.123,8.123,0,0,0,2.416.394c1.736,0,4.012-.394,4.012-3.772C136.162,367.047,135.04,366.117,133.812,365.236Z" transform="translate(-129.449 -359.371)"/><path class="a" d="M184.116,370.016h3.76c.074.309.665,2.794.665,2.794h2.237l-3.582-12.993H184.81l-3.581,12.993h2.232S184.052,370.325,184.116,370.016Zm1.473-6.118s.231-1.021.422-1.821c.178.82.418,1.821.418,1.821s.922,3.766,1.047,4.259h-2.943C184.654,367.664,185.589,363.9,185.589,363.9Z" transform="translate(-161.616 -359.649)"/><path class="a" d="M560.969,371.936v-7.387h-4.046v1.844H558.9v4.173a8.973,8.973,0,0,1-1.9.274c-1.227,0-2.473-.587-2.473-4.8,0-3.246,1.06-4.836,3.227-4.836a6.964,6.964,0,0,1,2.542.556l.307.154v-1.89l-.115-.063a6.3,6.3,0,0,0-2.734-.595c-1.978,0-5.287.86-5.287,6.673,0,5.871,2.259,6.664,4.463,6.664a14.03,14.03,0,0,0,3.879-.731Z" transform="translate(-392.236 -359.371)"/><path class="a" d="M616.71,366.2c0,.628.053,1.45.115,2.2-.22-.536-.5-1.172-.844-1.9l-3.212-6.679H610.8v12.993h2.072v-6.659c0-.639-.062-1.473-.111-2.212.236.572.529,1.246.842,1.914l3.38,6.956h1.8V359.818H616.71Z" transform="translate(-428.48 -359.649)"/><path class="a" d="M328.377,359.371c-1.053,0-4.254,0-4.254,6.673,0,5.9,2.279,6.664,4.254,6.664s4.252-.765,4.252-6.664C332.63,361.537,331.246,359.371,328.377,359.371Zm0,11.607c-1.459,0-2.2-1.658-2.2-4.934,0-4.441,1.247-4.947,2.2-4.947,1.472,0,2.192,1.619,2.192,4.947C330.57,368.3,330.184,370.978,328.377,370.978Z" transform="translate(-250.386 -359.371)"/></g><g transform="translate(49.467 198.002)"><rect class="b" width="280.649" height="50.991"/><g transform="translate(18.795 13.811)"><path class="c" d="M282.261,250.429a15.575,15.575,0,0,0-4.023-.4c-.95,0-2.276.031-3.972.083l-2.124.074v.577h.312a3.969,3.969,0,0,1,1.684.222,1.151,1.151,0,0,1,.49.816,17.953,17.953,0,0,1,.109,2.591v8.3a19.423,19.423,0,0,1-.109,2.714,1.266,1.266,0,0,1-.54.84,2.8,2.8,0,0,1-1.494.27h-.452v.578H279.9v-.578h-.572a2.837,2.837,0,0,1-1.55-.3,1.29,1.29,0,0,1-.514-.909,24.874,24.874,0,0,1-.073-2.621v-3.557h1.845a10.34,10.34,0,0,0,4.058-.548,3.99,3.99,0,0,0,1.781-1.607,4.835,4.835,0,0,0,.617-2.441,3.853,3.853,0,0,0-.915-2.64A4.716,4.716,0,0,0,282.261,250.429Zm-.009,6.563a2.8,2.8,0,0,1-1.5,1.237,7.987,7.987,0,0,1-2.36.29h-1.2V250.68c.3-.023.721-.049,1.289-.049a4.724,4.724,0,0,1,3.339.992,4.032,4.032,0,0,1,1.026,3.064A4.232,4.232,0,0,1,282.252,256.992Z" transform="translate(-206.595 -244.132)"/><path class="c" d="M375.3,265.027a4.038,4.038,0,0,1-1.639,1.422,6.2,6.2,0,0,1-2.192.324H370.21c-1.139,0-1.825-.166-2.094-.517-.245-.364-.371-1.531-.371-3.552v-4h1.843a5.567,5.567,0,0,1,1.534.152,1.092,1.092,0,0,1,.71.616,4.9,4.9,0,0,1,.241,1.888h.587v-5.777h-.587a5.413,5.413,0,0,1-.175,1.682,1.114,1.114,0,0,1-.641.633,4.87,4.87,0,0,1-1.725.219h-1.787v-7.1h2.342a11.665,11.665,0,0,1,2.573.2,2.429,2.429,0,0,1,1.364.939,6.5,6.5,0,0,1,.985,2.49h.589l-.392-4.206H363.111v.577a3.255,3.255,0,0,1,1.6.248,1.129,1.129,0,0,1,.481.84,14.688,14.688,0,0,1,.124,2.54v8.3a16.216,16.216,0,0,1-.113,2.642,1.409,1.409,0,0,1-.469.859,2.651,2.651,0,0,1-1.62.324h-.353v.578h14l.368-5.268h-.611A8.033,8.033,0,0,1,375.3,265.027Z" transform="translate(-262.888 -244.389)"/><path class="c" d="M424.208,262.177c-1.559-2.126-2.7-3.364-3.41-3.7a5.975,5.975,0,0,0,3.573-1.459,3.753,3.753,0,0,0,1.229-2.829,3.482,3.482,0,0,0-.923-2.443,5.262,5.262,0,0,0-2.453-1.467,13.959,13.959,0,0,0-3.939-.453c-.948,0-2.217.033-3.827.105l-2.427.126v.577h.287a3.894,3.894,0,0,1,1.673.222,1.221,1.221,0,0,1,.506.816,19.841,19.841,0,0,1,.1,2.591v8.3a21.471,21.471,0,0,1-.1,2.714,1.259,1.259,0,0,1-.552.84,2.853,2.853,0,0,1-1.5.27H411.9v.578h8.106v-.578h-.82a2.848,2.848,0,0,1-1.559-.3,1.421,1.421,0,0,1-.507-.909,24.738,24.738,0,0,1-.083-2.621v-3.756h.666a1.7,1.7,0,0,1,1.021.241,9.418,9.418,0,0,1,1.2,1.28c.575.7,1.106,1.442,1.65,2.2a19.481,19.481,0,0,0,3.71,4.436h4.53v-.578a4.453,4.453,0,0,1-2.583-.854A16.513,16.513,0,0,1,424.208,262.177Zm-5.231-4.009c-.659.035-1.317.062-1.935.066v-7.725c.394-.029.758-.051,1.055-.051,2.005,0,3.294.363,3.89,1.076a4.272,4.272,0,0,1,.892,2.848,5.137,5.137,0,0,1-.25,1.726,3.228,3.228,0,0,1-.734,1.146,2.9,2.9,0,0,1-1.181.639A6.67,6.67,0,0,1,418.976,258.168Z" transform="translate(-293.419 -244.01)"/><path class="c" d="M110.947,246.258a39.943,39.943,0,0,0-4.262-2.08,16.419,16.419,0,0,1-4.217-2.489,4.086,4.086,0,0,1-1.258-2.907,3.842,3.842,0,0,1,.93-2.464,4.035,4.035,0,0,1,3.115-1.134,5.439,5.439,0,0,1,3.777,1.49,7.985,7.985,0,0,1,2.173,4.117h.646v-5.911h-.646a3.579,3.579,0,0,1-.859,1.979,7.07,7.07,0,0,0-2.595-1.927,7.9,7.9,0,0,0-2.688-.467,5.9,5.9,0,0,0-4.246,1.6,5.366,5.366,0,0,0-1.667,4.018,6.1,6.1,0,0,0,.683,2.8,6.711,6.711,0,0,0,2.374,2.161,34.681,34.681,0,0,0,4.1,1.936,14.948,14.948,0,0,1,4.244,2.453,4.639,4.639,0,0,1,1.057,3.2,4.084,4.084,0,0,1-1.346,3.1,5.1,5.1,0,0,1-3.744,1.3q-5.288,0-6.7-7.1h-.733V257.2h.733a5.5,5.5,0,0,1,.808-2.2,7.85,7.85,0,0,0,6.184,2.832,7.2,7.2,0,0,0,5.154-1.808,6.145,6.145,0,0,0,1.94-4.705,5.43,5.43,0,0,0-.776-2.987A5.555,5.555,0,0,0,110.947,246.258Z" transform="translate(-99.089 -234.464)"/><path class="c" d="M227.614,252a9.563,9.563,0,0,0-6.608-2.332,9.414,9.414,0,0,0-6.53,2.348,8.085,8.085,0,0,0-2.6,6.3,8.481,8.481,0,0,0,2.573,6.447,10.316,10.316,0,0,0,13.28,0,8.434,8.434,0,0,0,2.546-6.379A8.082,8.082,0,0,0,227.614,252Zm-1.87,12.521a5.493,5.493,0,0,1-4.516,2.048,5.876,5.876,0,0,1-4.883-2.048c-1.078-1.373-1.625-3.407-1.625-6.136,0-2.673.548-4.692,1.625-6.059a6.4,6.4,0,0,1,9.43.056,9.614,9.614,0,0,1,1.638,6.032C227.412,261.116,226.843,263.144,225.743,264.517Z" transform="translate(-169.153 -243.907)"/><path class="c" d="M161.489,251.017h.443a3.822,3.822,0,0,1,1.666.222,1.2,1.2,0,0,1,.5.816,20.662,20.662,0,0,1,.106,2.591v3.365h-8.833v-3.365a16.012,16.012,0,0,1,.125-2.651,1.132,1.132,0,0,1,.524-.766,3.968,3.968,0,0,1,1.629-.212h.311v-.577h-7.609v.577h.308a3.718,3.718,0,0,1,1.649.222,1.1,1.1,0,0,1,.5.816,17.186,17.186,0,0,1,.12,2.591v8.3a18.582,18.582,0,0,1-.12,2.714,1.2,1.2,0,0,1-.529.84,2.846,2.846,0,0,1-1.483.27h-.45v.578h7.609v-.578h-.426a2.933,2.933,0,0,1-1.571-.3,1.425,1.425,0,0,1-.491-.909,21.546,21.546,0,0,1-.1-2.621v-4.085H164.2v4.085a22.331,22.331,0,0,1-.106,2.714,1.263,1.263,0,0,1-.548.84,2.8,2.8,0,0,1-1.486.27h-.575v.578H169.2v-.578H168.8a2.878,2.878,0,0,1-1.564-.3,1.332,1.332,0,0,1-.5-.909,26.1,26.1,0,0,1-.093-2.621v-8.3a15.811,15.811,0,0,1,.137-2.651,1.052,1.052,0,0,1,.518-.766,3.869,3.869,0,0,1,1.643-.212h.254v-.577h-7.708Z" transform="translate(-130.934 -244.389)"/><path class="c" d="M327.606,250.429a15.536,15.536,0,0,0-4.029-.4c-.945,0-2.263.031-3.962.083l-2.127.074v.577h.318a3.927,3.927,0,0,1,1.664.222,1.2,1.2,0,0,1,.51.816,19.76,19.76,0,0,1,.1,2.591v8.3a21.371,21.371,0,0,1-.1,2.714,1.272,1.272,0,0,1-.541.84,2.935,2.935,0,0,1-1.508.27h-.443v.578h7.749v-.578h-.571a2.871,2.871,0,0,1-1.536-.3,1.3,1.3,0,0,1-.5-.909,19.507,19.507,0,0,1-.1-2.621v-3.557h1.853a10.371,10.371,0,0,0,4.055-.548,3.81,3.81,0,0,0,1.766-1.607,4.56,4.56,0,0,0,.623-2.441,3.853,3.853,0,0,0-.9-2.64A4.677,4.677,0,0,0,327.606,250.429Zm-.01,6.563a2.818,2.818,0,0,1-1.5,1.237,7.945,7.945,0,0,1-2.367.29h-1.2V250.68c.308-.023.726-.049,1.309-.049a4.691,4.691,0,0,1,3.324.992,4.031,4.031,0,0,1,1.04,3.064A4.212,4.212,0,0,1,327.6,256.992Z" transform="translate(-234.765 -244.132)"/><path class="c" d="M590.935,250.44l-.089,4.055h.553a8.018,8.018,0,0,1,.758-2.389,2.123,2.123,0,0,1,1.068-.926,9.248,9.248,0,0,1,2.2-.163h2.495v11.931a18.494,18.494,0,0,1-.124,2.714,1.191,1.191,0,0,1-.535.84,2.912,2.912,0,0,1-1.506.27h-.866v.578h8.432v-.578H602.5a2.82,2.82,0,0,1-1.543-.3,1.41,1.41,0,0,1-.518-.917c-.055-.423-.066-1.286-.066-2.613V251.017h2.7a7.677,7.677,0,0,1,1.97.168,2.114,2.114,0,0,1,1.05.921,6.212,6.212,0,0,1,.805,2.389h.535l-.108-4.055Z" transform="translate(-404.583 -244.389)"/><path class="c" d="M659.7,252a9.564,9.564,0,0,0-6.6-2.332,9.381,9.381,0,0,0-6.527,2.348,8.1,8.1,0,0,0-2.619,6.3,8.452,8.452,0,0,0,2.584,6.447,10.322,10.322,0,0,0,13.285,0,8.473,8.473,0,0,0,2.538-6.379A8.118,8.118,0,0,0,659.7,252Zm-1.876,12.521a5.491,5.491,0,0,1-4.509,2.048,5.9,5.9,0,0,1-4.887-2.048c-1.092-1.373-1.626-3.407-1.626-6.136,0-2.673.534-4.692,1.626-6.059a6.414,6.414,0,0,1,9.439.056,9.687,9.687,0,0,1,1.612,6.032C659.481,261.116,658.948,263.144,657.826,264.517Z" transform="translate(-437.575 -243.907)"/><path class="c" d="M718,251.9a4.723,4.723,0,0,0-2.312-1.47,15.631,15.631,0,0,0-4.041-.4c-.94,0-2.265.031-3.956.083l-2.124.074v.577h.313a3.876,3.876,0,0,1,1.678.222,1.137,1.137,0,0,1,.495.816,16.1,16.1,0,0,1,.119,2.591v8.3a17.419,17.419,0,0,1-.119,2.714,1.219,1.219,0,0,1-.533.84,2.84,2.84,0,0,1-1.486.27h-.466v.578h7.751v-.578h-.557a2.864,2.864,0,0,1-1.552-.3,1.4,1.4,0,0,1-.508-.909,20.768,20.768,0,0,1-.1-2.621v-3.557h1.883a10.4,10.4,0,0,0,4.043-.548,3.952,3.952,0,0,0,1.768-1.607,4.652,4.652,0,0,0,.62-2.441A3.867,3.867,0,0,0,718,251.9Zm-2.331,5.093a2.743,2.743,0,0,1-1.5,1.237,7.773,7.773,0,0,1-2.336.29H710.6V250.68c.316-.023.745-.049,1.32-.049a4.7,4.7,0,0,1,3.331.992,4.056,4.056,0,0,1,1.019,3.064A4.1,4.1,0,0,1,715.672,256.992Z" transform="translate(-475.852 -244.132)"/><path class="c" d="M476.26,258.25a34.442,34.442,0,0,0-3.17-1.584,11.546,11.546,0,0,1-3.15-1.846,2.544,2.544,0,0,1-.891-1.978,2.634,2.634,0,0,1,.694-1.779,2.734,2.734,0,0,1,2.207-.831,3.985,3.985,0,0,1,2.8,1.114,5.947,5.947,0,0,1,1.682,3.035h.549v-4.424h-.549a2.689,2.689,0,0,1-.649,1.485,5.13,5.13,0,0,0-1.945-1.44,5.736,5.736,0,0,0-2.027-.339,4.411,4.411,0,0,0-3.179,1.2,4,4,0,0,0-1.253,3,4.539,4.539,0,0,0,.589,2.226,4.7,4.7,0,0,0,1.606,1.717,22.954,22.954,0,0,0,3.078,1.508,10.7,10.7,0,0,1,3.142,1.819,2.958,2.958,0,0,1,.859,2.147,3.2,3.2,0,0,1-.994,2.27,3.56,3.56,0,0,1-2.737,1.012c-2.656,0-4.333-1.777-5.037-5.307h-.627v5.426h.627a4.133,4.133,0,0,1,.614-1.641,5.873,5.873,0,0,0,4.648,2.137A5.389,5.389,0,0,0,477,265.818a5.039,5.039,0,0,0,.843-5.941A4.338,4.338,0,0,0,476.26,258.25Z" transform="translate(-327.805 -243.907)"/><path class="c" d="M553.358,246.258a41.146,41.146,0,0,0-4.276-2.08,16.454,16.454,0,0,1-4.2-2.489,4.07,4.07,0,0,1-1.26-2.907,3.832,3.832,0,0,1,.951-2.464,3.986,3.986,0,0,1,3.105-1.134,5.453,5.453,0,0,1,3.773,1.49,7.956,7.956,0,0,1,2.169,4.117h.659v-5.911h-.659a3.7,3.7,0,0,1-.867,1.979,6.76,6.76,0,0,0-2.592-1.927,7.724,7.724,0,0,0-2.686-.467,5.852,5.852,0,0,0-4.22,1.6,5.319,5.319,0,0,0-1.7,4.018,5.941,5.941,0,0,0,.692,2.8,6.744,6.744,0,0,0,2.372,2.161,34.492,34.492,0,0,0,4.1,1.936,14.723,14.723,0,0,1,4.257,2.453,4.686,4.686,0,0,1,1.054,3.2,4.126,4.126,0,0,1-1.345,3.1,5.146,5.146,0,0,1-3.76,1.3c-3.513,0-5.762-2.373-6.684-7.1H541.5V257.2h.749a5.572,5.572,0,0,1,.807-2.2,7.785,7.785,0,0,0,6.175,2.832,7.2,7.2,0,0,0,5.155-1.808,6.156,6.156,0,0,0,1.939-4.705,5.455,5.455,0,0,0-.768-2.987A5.764,5.764,0,0,0,553.358,246.258Z" transform="translate(-373.925 -234.464)"/></g></g></g><rect class="d" width="300" height="150" transform="translate(117 711)"/></g></svg>