<svg xmlns="http://www.w3.org/2000/svg" width="300" height="150" viewBox="0 0 300 150"><defs><style>.a{fill:none;}.b{fill:#161614;fill-rule:evenodd;}.c{fill:#e6143c;}.d{fill:#fff;}</style></defs><g transform="translate(-487 -711)"><rect class="a" width="300" height="150" transform="translate(487 711)"/><g transform="translate(497 749)"><path class="b" d="M48.116,15.869V27.447a2.365,2.365,0,0,0-2.125,1.3,7.414,7.414,0,0,0-.824,3.756V45.061c0,2.774.176,4.565.65,5.381a2.487,2.487,0,0,0,2.3,1.159V63.827a22.162,22.162,0,0,1-2.457-1.632v4.889c0,2.134-.175,3.274-.667,3.757-.455.492-1.457.631-2.914.631H36.689c-1.633,0-2.615-.14-2.931-.473-.334-.332-.492-1.466-.492-3.416V18.308c0-1.289.158-2.124.649-2.439.475-.492,1.475-.64,2.932-.64h5.232c1.142,0,1.949.148,2.282.64.493.315.632,1.15.808,2.439a9.925,9.925,0,0,1,2.949-2.439M.14,60.9,0,55.331V54.042a6.828,6.828,0,0,1,.474-2.949,2.116,2.116,0,0,1,1.809-.807,15.14,15.14,0,0,1,1.948.474,10.906,10.906,0,0,0,3.09.508,5.2,5.2,0,0,0,3.107-.659,3.418,3.418,0,0,0,.825-2.43c0-1.307-1.158-3.117-3.422-5.064-.65-.483-1.141-.974-1.65-1.325A19.673,19.673,0,0,1,1.615,35.6,17.014,17.014,0,0,1,.14,28.421C.14,24.349,1.3,20.933,3.9,18.308A12.763,12.763,0,0,1,13.692,14.4c4.073,0,6.531.315,7.5.826a3.792,3.792,0,0,1,1.49,3.422v4.88a4.674,4.674,0,0,1-.666,2.782,2.7,2.7,0,0,1-1.967.808,7.85,7.85,0,0,1-1.632-.158,7.119,7.119,0,0,0-1.791-.167,3.474,3.474,0,0,0-2.283.65,3.094,3.094,0,0,0-.807,2.132c0,.807,1.141,2.44,3.248,4.723A33.722,33.722,0,0,1,19.4,37.093a18.442,18.442,0,0,1,3.9,6.021,16.636,16.636,0,0,1,1.316,6.513c0,4.739-1.316,8.488-4.073,11.27C17.923,63.486,14.166,64.8,9.462,64.8c-3.283,0-5.564-.15-7.023-.808C.966,63.486.14,62.677.14,61.536ZM108.945,9.664V6.09a4.863,4.863,0,0,1,.825-3.256A5.868,5.868,0,0,1,113.333,2h5.424a3.593,3.593,0,0,1,2.108.5,2.771,2.771,0,0,1,.632,1.791v.492a16.2,16.2,0,0,0-.159,2.773V32.019h1.141a65.75,65.75,0,0,0,4.406-11.9c.333-1.466.649-2.458.807-2.949a2.556,2.556,0,0,1,.984-1.476c.334-.315,1.158-.315,2.282-.315h2.948c2.932,0,4.723.158,5.39.492a2.613,2.613,0,0,1,1.123,2.439c0,1.149-.631,3.276-1.789,6.373-1.142,3.256-3.107,7.821-5.706,13.868l7.988,21.531a8.2,8.2,0,0,1,.333,1.308,2.092,2.092,0,0,1,.158.956,1.569,1.569,0,0,1-.491,1.307,3.8,3.8,0,0,1-1.932.343H130.8a3.33,3.33,0,0,1-2.283-.816,8.758,8.758,0,0,1-1.474-3.415l-4.23-15.019h-1.475V60.08c0,1.782-.175,2.921-.649,3.405a3.354,3.354,0,0,1-2.283.675,6.607,6.607,0,0,1-1.632-.166h-3.914a7.063,7.063,0,0,1-1.457.166,1.938,1.938,0,0,1-1.809-.824,6.938,6.938,0,0,1-.649-3.432V9.664ZM71.271,60.9a4.508,4.508,0,0,1,.492-2.44,1.688,1.688,0,0,1,1.457-.842,2.614,2.614,0,0,1,1.476.5,1.581,1.581,0,0,0,.984.341,2.619,2.619,0,0,0,1.3-.175,1.364,1.364,0,0,0,.335-1.142v-.982a2.6,2.6,0,0,1-.176-1.141l-7.163-35.39a2.105,2.105,0,0,0-.157-.974,5.444,5.444,0,0,0-.177-.992,2.652,2.652,0,0,1,.827-1.791,4.59,4.59,0,0,1,2.282-.64h7.161c1.457,0,2.3,1.14,2.458,3.422l2.949,30.5h1.457l2.44-31.492a2.814,2.814,0,0,1,.649-1.967,4.117,4.117,0,0,1,2.283-.463h6.2a4.239,4.239,0,0,1,2.44.64,2.287,2.287,0,0,1,1,1.957c0,.326-.158.65-.158.975,0,.5-.158.825-.158,1.317L92.794,60.08c-.807,4.248-2.282,7.17-4.231,8.97s-4.739,2.765-8.339,2.765c-3.248,0-5.529-.343-6.828-.974a2.7,2.7,0,0,1-2.126-2.624ZM48.116,63.827V51.6h.159c1.123,0,1.948-.335,2.283-1.159.474-.658.649-2.106.649-4.389V33.969c0-2.609-.176-4.39-.649-5.223a2.453,2.453,0,0,0-2.283-1.3h-.159V15.869c.159-.177.317-.177.475-.335a10.963,10.963,0,0,1,3.933-.649c3.9,0,6.513,1.966,8.3,5.89,1.79,3.906,2.616,10.262,2.616,19.063,0,8.5-.966,14.842-2.774,18.766q-2.712,5.86-8.813,5.863a8.3,8.3,0,0,1-3.422-.641ZM163.1,30.07v9.286a2.506,2.506,0,0,0-2.123,1.159,5.336,5.336,0,0,0-.809,3.413v5.539a5.5,5.5,0,0,0,.65,3.1,2.484,2.484,0,0,0,2.282,1.15V63.995a8.775,8.775,0,0,1-3.775.808c-3.405,0-6.022-1.624-8.127-4.723-1.949-3.274-2.949-7.339-2.949-12.561,0-5.564,1-9.795,3.265-13.042a9.83,9.83,0,0,1,8.479-4.9A10.86,10.86,0,0,1,163.1,30.07Zm0-15.51V25.172a5.787,5.787,0,0,0-1.632-.156,17.524,17.524,0,0,0-4.74.641,21.89,21.89,0,0,1-2.933.805,1.874,1.874,0,0,1-1.632-.639,3.844,3.844,0,0,1-.3-2.115v-4.25a10.637,10.637,0,0,1,.123-2.289,3.285,3.285,0,0,1,1.141-.8,20.266,20.266,0,0,1,4.74-1.3A27.675,27.675,0,0,1,163.1,14.561Zm27.894,49.434a2.978,2.978,0,0,1-2.458-.816c-.492-.667-.649-1.791-.649-3.6V23.207a22.937,22.937,0,0,1-.141-2.931c0-2.282.3-3.59.964-4.23.65-.668,2.108-.816,4.231-.816h4.232c1.632,0,2.633,1.457,2.633,4.546v.343l.65.158a18.827,18.827,0,0,1,2.106-4.406,3.117,3.117,0,0,1,2.458-1.634,1.97,1.97,0,0,1,1.966.993c.492.816.631,1.939.631,3.9V28.1c0,2.125-.631,3.265-2.105,3.591h-.176a4.708,4.708,0,0,0-3.405,1.649,6.111,6.111,0,0,0-.984,3.907v15.5a37.235,37.235,0,0,0,.16,3.889c0,1.65.157,2.615.157,3.274,0,1.807-.157,2.939-.65,3.432-.333.491-1.3.658-2.773.658Zm-27.894,0V53.716h.14a2.525,2.525,0,0,0,2.318-1.15,7.155,7.155,0,0,0,.649-3.756V43.772a6.136,6.136,0,0,0-.649-3.424,2.425,2.425,0,0,0-2.124-.992H163.1V30.07a15.411,15.411,0,0,0,2.283.483c.491,0,.649,0,.824-.334.333-.149.333-.641.333-1.133a4.145,4.145,0,0,0-1.335-3.1,7.864,7.864,0,0,0-2.106-.816V14.561h1.14c5.215,0,8.813.816,10.938,2.608,2.105,1.966,3.266,5.223,3.266,9.953V61.213a3.482,3.482,0,0,1-.51,2.273c-.333.342-1.475.509-3.265.509h-5.846a3.438,3.438,0,0,1-1.966-.343,4.778,4.778,0,0,1-.508-2.756h-.474a5.466,5.466,0,0,1-2.44,2.931A.71.71,0,0,1,163.1,63.995Z"/><path class="c" d="M8.953,0H53.006a8.954,8.954,0,0,1,8.954,8.954V53a8.954,8.954,0,0,1-8.954,8.954H8.954A8.954,8.954,0,0,1,0,53.005V8.953A8.953,8.953,0,0,1,8.953,0Z" transform="translate(217.068 5.928)"/><path class="d" d="M383.647,64.81l.715-1.582c5.254-11.511,4.6-16.662,3.121-18.949-1.047-1.647-2.923-2.471-5.584-2.471-5.16,0-12.875,3.2-20.621,8.562l-.5.348V47.691c10.4-7.041,20.13-11.248,26.067-11.248,2.942,0,5.065.976,6.307,2.878,2.221,3.414,1.394,9.8-2.463,19.012a76.472,76.472,0,0,1,28.1-5.6c1.282,0,2.6.034,3.9.1l.043,0v6.311l-.182-.024a65.746,65.746,0,0,0-8.92-.617c-9.771,0-18.4,2.291-28.349,5.734Z" transform="translate(-143.706 -13.72)"/></g></g></svg>