<svg xmlns="http://www.w3.org/2000/svg" width="160" height="150" viewBox="0 0 160 150"><defs><style>.a{fill:#c0061d;}.b,.c{fill:#ce351c;}.b,.d{fill-rule:evenodd;}.d{fill:#ffe918;}.e{fill:none;}</style></defs><g transform="translate(-1297 -711)"><g transform="translate(1289.888 507.395)"><rect class="a" width="149.734" height="101.39" transform="translate(12.112 227.605)"/><path class="b" d="M500.676,340.663l20.756,69.066V412.1h-.5l-21.438-71.081Z" transform="translate(-359.586 -83.414)"/><path class="b" d="M499.846,339.636l20.421,68.024v1.16l-.329.1-20.645-68.742-.537.159L520,410.83h.267v.656H519.5l-.078-.2L498,340.189l-.092-.33.335-.1,1.18-.35.083.328Z" transform="translate(-358.421 -82.491)"/><path class="b" d="M549.515,227.605l7.878,26.576v2.778H557l-8.77-29.354Z" transform="translate(-395.548 0)"/><path class="b" d="M552.383,243.359h0L547.677,227.6h-.346l-.321.1,5.372,18.006ZM548.957,227.6h0l3.425,11.554v2.4l-4.1-13.845.328-.1Zm3.425,18.111h0l3.38,11.339.1.238h.628v-.677h-.15l-3.958-13.256Zm0-6.557L556.491,253v1.172l-.33.115-3.778-12.731Z" transform="translate(-394.645)"/><path class="b" d="M508.231,227.605l18.648,62.9v1.918h-.65l-19.353-64.822Z" transform="translate(-365.033 0)"/><path class="b" d="M516.5,261.676h0L506.318,227.6h-.344l-.32.1,10.844,36.3ZM507.68,227.6h0l8.818,29.74v2.379l-9.493-32.015.325-.1Zm8.818,36.406h0l8.5,28.518.079.236h.9v-.686h-.408l-9.072-30.4Zm0-6.665,9.48,31.99v1.173l-.33.1-9.15-30.889Z" transform="translate(-364.132)"/><path class="c" d="M583.038,474.608h.033v-.075Z" transform="translate(-421.226 -182.181)"/><path class="b" d="M13.178,227.605l19.183,64.746h-1.22l-19.029-63.77v-.976Z" transform="translate(0 0)"/><path class="b" d="M13.532,227.605l19.156,64.642.132.446H30.9l-.067-.242-18.719-62.7v-1.161l.317-.093,18.98,63.514h.5l-19.046-64.3.312-.1Z" transform="translate(0 0)"/><path class="b" d="M174.77,227.605l19.422,64.746h-1.212L173.34,227.605Z" transform="translate(-118.953 0)"/><path class="b" d="M174.227,227.605l19.394,64.642.124.446h-1.9l-.1-.242L172.131,227.71l.317-.1h.353l19.537,64.406h.5l-19.28-64.3.325-.1Z" transform="translate(-118.061 0)"/><path class="b" d="M340.242,227.605l19.436,64.746h-1.224l-19.638-64.746Z" transform="translate(-241.04 0)"/><path class="b" d="M339.726,227.605l19.384,64.642.136.446h-1.9l-.09-.242L337.635,227.71l.318-.1h.357l19.521,64.406h.51l-19.286-64.3.316-.1Z" transform="translate(-240.169 0)"/><path class="b" d="M436.552,227.605l-19.573,64.746h1.207l19.795-64.746Z" transform="translate(-298.709 0)"/><path class="b" d="M435.578,227.71l-19.441,64.3h.517l19.682-64.406h.347l.312.1-19.78,64.74-.078.243h-1.917l.144-.446,19.547-64.642h.343Z" transform="translate(-297.41 0)"/><path class="b" d="M270.857,227.605l-19.644,64.746h1.211l19.863-64.746Z" transform="translate(-176.407 0)"/><path class="b" d="M269.885,227.71l-19.5,64.3h.5l19.749-64.406H271l.315.1-19.867,64.74-.067.243h-1.913l.134-.446,19.6-64.642h.363Z" transform="translate(-175.12 0)"/><path class="b" d="M106.493,227.605,87.059,292.351H88.27l19.649-64.746Z" transform="translate(-55.296 0)"/><path class="b" d="M105.567,227.71,86.3,292.012h.491l19.543-64.406h.355l.313.1L87.374,292.45l-.067.243H85.386l.125-.446,19.4-64.642h.35Z" transform="translate(-54.061 0)"/><path class="b" d="M52.748,227.605l8.65,29.2h-1.22l-8.71-29.2Z" transform="translate(-29.037 0)"/><path class="b" d="M52.215,227.605l8.617,29.1.132.443H59.043l-.067-.237-8.717-29.2.317-.1h.352l8.626,28.84h.5L51.539,227.71l.323-.1Z" transform="translate(-28.145 0)"/><path class="b" d="M215.772,227.605l8.772,29.2h-1.212l-8.854-29.2Z" transform="translate(-149.305 0)"/><path class="b" d="M215.244,227.605l8.724,29.1.124.443h-1.9l-.1-.237-8.829-29.2.319-.1h.344l8.759,28.84h.5l-8.622-28.735.327-.1Z" transform="translate(-148.408 0)"/><path class="b" d="M381.276,227.605l8.761,29.2h-1.224l-8.849-29.2Z" transform="translate(-271.399 0)"/><path class="b" d="M380.72,227.605l8.711,29.1.136.443h-1.9l-.09-.237-8.848-29.2.324-.1h.347l8.751,28.84h.508l-8.623-28.735.32-.1Z" transform="translate(-270.491 0)"/><path class="b" d="M425.8,227.605l-8.824,29.2h1.207l8.927-29.2Z" transform="translate(-298.709 0)"/><path class="b" d="M424.831,227.71l-8.694,28.735h.518l8.8-28.84h.36l.327.1-8.93,29.2-.078.237h-1.917l.144-.443,8.793-29.1h.348Z" transform="translate(-297.41 0)"/><path class="b" d="M260.064,227.605l-8.852,29.2h1.211l8.954-29.2Z" transform="translate(-176.407 0)"/><path class="b" d="M259.094,227.71l-8.706,28.735h.5l8.843-28.84h.356l.324.1-8.961,29.2-.067.237h-1.913l.134-.443,8.824-29.1h.351Z" transform="translate(-175.12 0)"/><path class="b" d="M95.831,227.605l-8.772,29.2H88.27l8.862-29.2Z" transform="translate(-55.296 0)"/><path class="b" d="M94.92,227.71,86.3,256.445h.491l8.762-28.84H95.9l.333.1-8.858,29.2-.067.237H85.386l.125-.443,8.727-29.1h.357Z" transform="translate(-54.061 0)"/><path class="b" d="M12.112,345.425l20.25,68.361h-1.22L12.112,350.017Z" transform="translate(0 -86.927)"/><path class="b" d="M12.429,345.082l20.259,68.339.132.447H30.9l-.067-.236-18.719-62.7v-1.17l.317-.1,18.98,63.527h.5l-19.8-66.838v-1.17Z" transform="translate(0 -86.674)"/><path class="b" d="M107.843,341.458l-20.784,69.4H88.27l21-69.4Z" transform="translate(-55.296 -84)"/><path class="b" d="M96.944,373.983h0L86.3,409.565h.491l10.157-33.513v2.328l-9.57,31.629-.067.236H85.386l.125-.445,11.433-38.185Zm9.918-33.114-9.918,33.114v-2.367l9.34-31.2.077-.247h2.148l-.141.439L96.944,378.38v-2.328l10.649-35.182Z" transform="translate(-54.061 -83.052)"/><path class="d" d="M336.033,342.249l20.421,68.967h-1.207l-20.67-68.967Z" transform="translate(-237.912 -84.584)"/><path class="d" d="M332.095,337.937l20.441,68.943.543,1.815h-4.07l-.3-1-20.67-68.945-.548-1.812H331.8Z" transform="translate(-232.685 -80.665)"/><path class="d" d="M272.42,342.31l-20.9,68.937h1.194l21.145-68.937Z" transform="translate(-176.636 -84.628)"/><path class="d" d="M244.92,406.869l20.944-68.932.3-1h4.3l-.56,1.839-21.15,68.936-.294.982h-4.077Z" transform="translate(-171.364 -80.665)"/><path class="d" d="M169.611,342.31l20.655,68.951h-1.213L168.164,342.31Z" transform="translate(-115.135 -84.628)"/><path class="d" d="M165.656,337.937l20.684,68.943.546,1.815h-4.071l-.3-.982-20.9-68.952-.561-1.823h4.309Z" transform="translate(-109.888 -80.665)"/><path class="c" d="M583.038,607.377h.033v-.06Z" transform="translate(-421.226 -280.149)"/><path class="d" d="M438.066,342.249l-20.855,68.967h1.208l21.085-68.967Z" transform="translate(-298.88 -84.584)"/><path class="d" d="M410.674,406.869l20.856-68.954.31-.977h4.291l-.556,1.823L414.5,407.713l-.293.982h-4.091Z" transform="translate(-293.643 -80.665)"/></g><rect class="e" width="160" height="150" transform="translate(1297 711)"/></g></svg>