<svg xmlns="http://www.w3.org/2000/svg" width="280" height="150" viewBox="0 0 280 150"><defs><style>.a{fill:#002c4a;}.b{fill:#b1c91e;}.c{fill:#fff;}.d{fill:none;}</style></defs><g transform="translate(-1520 -711)"><g transform="translate(1526 742)"><rect class="a" width="267.464" height="78.426"/><rect class="b" width="267.462" height="8.708" transform="translate(0.002 78.426)"/><g transform="translate(22.78 10.214)"><path class="c" d="M138.048,28.079a1.188,1.188,0,0,0-.589-.132,11.063,11.063,0,0,0-4.585,1.479,31.508,31.508,0,0,0-6.514,4.688,48.376,48.376,0,0,0-7.173,8.307q-6.377,9.3-11.636,16.753a97.93,97.93,0,0,1-10.164,12.45A82.414,82.414,0,0,0,104.569,58.5q3.126-7.173,6.17-15.131a91.829,91.829,0,0,1,3.835-8.574,20.484,20.484,0,0,0,1.5-3.093.691.691,0,0,0-.052-.188.182.182,0,0,0-.16-.072c-.648.008-1.741.972-3.274,2.871s-3.547,4.647-6.042,8.246q-6.644,9.794-12.133,17.011A57.574,57.574,0,0,1,83.686,70.747a90.18,90.18,0,0,0,12.558-17.7q4.142-8.087,4.134-13.972a12.555,12.555,0,0,0-3.4-9.022,12.053,12.053,0,0,0-8.789-3.438,23.742,23.742,0,0,0-10.939,2.864,35.981,35.981,0,0,0-10.466,8.39A33.1,33.1,0,0,0,61.242,46.5a21.347,21.347,0,0,0-1.886,8.246,10.17,10.17,0,0,0,2.192,6.629,9.172,9.172,0,0,0,5.926,3.151q1.38,8.991,6.9,14.158a19.388,19.388,0,0,0,20.693,3.8c1.976-.873,3.014-1.625,3.082-2.219-.005-.128-.115-.2-.324-.2a6.909,6.909,0,0,0-1.607.753A20.949,20.949,0,0,1,92.856,82.2a18.393,18.393,0,0,1-17.9-4.369,21.632,21.632,0,0,1-6.326-13.245,17.923,17.923,0,0,0,5.211-1.067,17.742,17.742,0,0,0,4.755-2.686,32.087,32.087,0,0,0,7.821-8.62,17.263,17.263,0,0,0,2.723-8.588,6.26,6.26,0,0,0-1.257-4.153,4.515,4.515,0,0,0-3.509-1.411,10.443,10.443,0,0,0-5.86,2.27,26.08,26.08,0,0,0-6.195,6.63,28.25,28.25,0,0,0-3.69,7.476,25.32,25.32,0,0,0-1.208,7.869v.939a7.023,7.023,0,0,1-5.079-2.625,9.88,9.88,0,0,1-1.91-6.284A19.56,19.56,0,0,1,62.5,46.2a34.036,34.036,0,0,1,6.183-8.87,33,33,0,0,1,9.385-7.085,21.331,21.331,0,0,1,9.286-2.431q5.024.028,7.583,2.734c1.72,1.818,2.575,4.464,2.58,7.919.015,3.192-1.094,7.392-3.363,12.61A87.752,87.752,0,0,1,83.611,68.414C81.9,70.6,80.566,72.3,79.59,73.492a6.874,6.874,0,0,0-1.507,2.277c0,.223.2.332.575.332.464.037,2.028-1.061,4.677-3.326A104.024,104.024,0,0,0,93.812,61.8,202.966,202.966,0,0,0,108.57,41.671a143.851,143.851,0,0,0-6.221,14.145c-1.466,4.02-2.663,7.236-3.556,9.637A52.32,52.32,0,0,1,95.16,72.8a9.923,9.923,0,0,0-1.641,3.38.157.157,0,0,0,.119.142.42.42,0,0,0,.195.055q1.344.029,7.27-7.295t16.365-22.31a96.572,96.572,0,0,1,6.981-9.248A30.752,30.752,0,0,1,132.4,30.9a19.273,19.273,0,0,1,4.232-1.75c1.049-.256,1.567-.514,1.605-.8a.316.316,0,0,0-.187-.267M70.225,52.968A29.2,29.2,0,0,1,75.29,44.7a21.323,21.323,0,0,1,5.026-4.311,8.753,8.753,0,0,1,4.118-1.39,3.156,3.156,0,0,1,2.359.89,3.47,3.47,0,0,1,.877,2.537,10.95,10.95,0,0,1-1.248,4.138,34.944,34.944,0,0,1-3.608,5.9,44.834,44.834,0,0,1-5.738,6.367,22.515,22.515,0,0,1-4.456,3.294,8.569,8.569,0,0,1-4.065,1.129,7.573,7.573,0,0,0-.035-.793c-.02-.3-.025-.611-.025-.953a23.271,23.271,0,0,1,1.731-8.535" transform="translate(-59.356 -26.615)"/><path class="c" d="M221.307,91.412h15.287v3.715H225.411v5.681h10.6v3.716h-10.6v6.263h11.767v3.71H221.307Z" transform="translate(-159.154 -66.544)"/><path class="c" d="M297.066,95.425a4.886,4.886,0,0,0-4.054-1.824c-1.887,0-3.774.852-3.774,2.968,0,4.636,10.954,1.994,10.954,10.208,0,4.958-3.921,7.372-8.439,7.372a9.592,9.592,0,0,1-7.576-3.136l3.106-2.994a5.416,5.416,0,0,0,4.562,2.406c1.895,0,4.042-1.038,4.042-3.161,0-5.053-10.955-2.143-10.955-10.4,0-4.758,4.237-6.976,8.517-6.976a9.448,9.448,0,0,1,6.61,2.377Z" transform="translate(-197.895 -65.605)"/><path class="c" d="M349.152,95.126h-7.084V91.412H360.33v3.715h-7.075V114.5h-4.1Z" transform="translate(-233.568 -66.544)"/><path class="c" d="M419.21,95.425a4.87,4.87,0,0,0-4.045-1.824c-1.884,0-3.775.852-3.775,2.968,0,4.636,10.957,1.994,10.957,10.208,0,4.958-3.92,7.372-8.46,7.372a9.56,9.56,0,0,1-7.557-3.136l3.093-2.994a5.443,5.443,0,0,0,4.57,2.406c1.892,0,4.04-1.038,4.04-3.161,0-5.053-10.96-2.143-10.96-10.4,0-4.758,4.244-6.976,8.517-6.976a9.5,9.5,0,0,1,6.629,2.377Z" transform="translate(-273.168 -65.605)"/><rect class="c" width="4.107" height="23.085" transform="translate(158.424 24.868)"/><path class="c" d="M505.115,91.412h9.107c6.064,0,11.731,3.715,11.731,11.54,0,7.9-6.679,11.544-12.22,11.544h-8.618Zm7.177,19.374c5.155,0,9.365-2.22,9.365-7.834s-3.662-7.826-8.678-7.826h-3.746v15.66Z" transform="translate(-334.042 -66.544)"/><path class="c" d="M578.591,91.412h15.294v3.715H582.7v5.681h10.6v3.716H582.7v6.263h11.776v3.71H578.591Z" transform="translate(-379.319 -66.544)"/></g></g><rect class="d" width="280" height="150" transform="translate(1520 711)"/></g></svg>